<svg width="16" height="15" viewBox="0 0 16 15" fill="none" xmlns="http://www.w3.org/2000/svg">
<path d="M12.8462 3.70833H3.15385C2.58261 3.70833 2.03477 3.93661 1.63085 4.34294C1.22692 4.74926 1 5.30036 1 5.875V11.8333C1 12.408 1.22692 12.9591 1.63085 13.3654C2.03477 13.7717 2.58261 14 3.15385 14H12.8462C13.4174 14 13.9652 13.7717 14.3692 13.3654C14.7731 12.9591 15 12.408 15 11.8333V5.875C15 5.30036 14.7731 4.74926 14.3692 4.34294C13.9652 3.93661 13.4174 3.70833 12.8462 3.70833ZM4.76923 14V3.70833V14ZM11.2308 14V3.70833V14ZM5.30769 3.70833C5.30769 2.99004 5.59135 2.30116 6.09625 1.79325C6.60116 1.28534 7.28596 1 8 1C8.71404 1 9.39884 1.28534 9.90375 1.79325C10.4087 2.30116 10.6923 2.99004 10.6923 3.70833" fill="#1D2939"/>
<path d="M4.76923 14V3.70833M11.2308 14V3.70833M5.30769 3.70833C5.30769 2.99004 5.59135 2.30116 6.09625 1.79325C6.60116 1.28534 7.28596 1 8 1C8.71404 1 9.39884 1.28534 9.90375 1.79325C10.4087 2.30116 10.6923 2.99004 10.6923 3.70833M12.8462 3.70833H3.15385C2.58261 3.70833 2.03477 3.93661 1.63085 4.34294C1.22692 4.74926 1 5.30036 1 5.875V11.8333C1 12.408 1.22692 12.9591 1.63085 13.3654C2.03477 13.7717 2.58261 14 3.15385 14H12.8462C13.4174 14 13.9652 13.7717 14.3692 13.3654C14.7731 12.9591 15 12.408 15 11.8333V5.875C15 5.30036 14.7731 4.74926 14.3692 4.34294C13.9652 3.93661 13.4174 3.70833 12.8462 3.70833Z" stroke="#FCFCFD" stroke-width="0.6" stroke-linecap="round" stroke-linejoin="round"/>
</svg>
