<svg width="18" height="18" viewBox="0 0 18 18" fill="none" xmlns="http://www.w3.org/2000/svg">
<path d="M1.55916 10.8908L1.14216 11.7863L4.41297 13.5779L6.30875 16.9945L7.12123 16.5778L6.53791 13.4112L9.89199 10.703L13.6836 17.182L14.6627 16.3278L12.7252 7.74472L17.121 3.03652L16.8293 0.870149L14.4127 1.28689L10.4336 5.28679L1.55916 3.45349L1.0172 4.26597L7.45452 8.16148L4.91292 11.6614L1.55916 10.8908Z" fill="#1D2939"/>
<path d="M6.86279 8.39967L2.88873 5.9767C2.22076 5.56959 1.55279 5.16459 0.885524 4.75256C0.417243 4.46287 0.379273 4.11975 0.763179 3.72319C0.903804 3.58256 1.04091 3.43842 1.18505 3.30131C1.29197 3.1928 1.42569 3.1145 1.57264 3.07436C1.71959 3.03423 1.87455 3.03369 2.02177 3.07279C4.65427 3.66131 7.28959 4.23787 9.91998 4.83061C10.2012 4.8953 10.3812 4.84959 10.5879 4.63795C11.6349 3.56639 12.7107 2.52295 13.7576 1.45139C14.3588 0.836154 15.0626 0.526075 15.9226 0.564747C16.156 0.575294 16.3908 0.557716 16.6257 0.571075C17.0349 0.594981 17.3914 0.888185 17.416 1.28404C17.4504 1.84654 17.4919 2.40904 17.3457 2.961C17.2205 3.4349 16.9576 3.82936 16.6095 4.17529C15.5295 5.24686 14.4622 6.33248 13.3751 7.39631C13.1558 7.60725 13.103 7.79779 13.1698 8.09381C13.7633 10.7137 14.3363 13.3377 14.9276 15.9583C14.9694 16.1107 14.9697 16.2715 14.9284 16.4241C14.8871 16.5767 14.8058 16.7154 14.6928 16.8259C14.5559 16.9703 14.4153 17.1109 14.2709 17.2478C13.8835 17.619 13.5291 17.5705 13.2401 17.0994C12.454 15.8141 11.6701 14.5272 10.8882 13.2386C10.5113 12.6205 10.1295 12.0053 9.76318 11.3816C9.6549 11.1988 9.58881 11.1355 9.38912 11.3064C8.5974 11.9821 7.79232 12.6423 6.98092 13.2948C6.80795 13.4355 6.77631 13.5641 6.82904 13.768C7.01185 14.4712 7.1806 15.1743 7.35006 15.8774C7.41491 16.1464 7.38242 16.4297 7.25835 16.6771C7.13428 16.9245 6.92665 17.1199 6.67224 17.2288C6.3692 17.3596 6.10974 17.245 5.90302 16.8772C5.38459 15.9496 4.86896 15.0203 4.35615 14.0894C4.26018 13.9037 4.11046 13.7513 3.92654 13.652C2.9942 13.1437 2.06677 12.6247 1.14006 12.1051C0.625368 11.8176 0.596539 11.4801 0.989585 11.0371C1.34115 10.6398 1.73138 10.5273 2.24326 10.6736C2.91685 10.8655 3.6024 11.0125 4.28232 11.1742C4.38638 11.1988 4.48974 11.2698 4.59732 11.139C5.34334 10.2313 6.09709 9.32498 6.86279 8.39967ZM16.869 2.06662C16.869 1.81701 16.869 1.65248 16.869 1.48865C16.8725 1.30303 16.8085 1.14975 16.6081 1.13709C15.6814 1.08365 14.813 1.12514 14.0965 1.89365C13.0109 3.05732 11.8522 4.15209 10.7321 5.28342C10.5683 5.44865 10.4115 5.51967 10.1759 5.46693C7.54342 4.87561 4.9067 4.30256 2.27841 3.69576C1.86427 3.60014 1.57529 3.63178 1.29404 3.96717C1.12248 4.17037 1.09576 4.23014 1.34537 4.3799C3.06943 5.4142 4.78084 6.46889 6.49506 7.51443C6.73412 7.66068 6.97388 7.90889 7.21787 7.91381C7.4731 7.91873 7.61935 7.56225 7.8331 7.38506C7.85068 7.37029 7.86474 7.35061 7.88162 7.33443C8.01662 7.20436 8.17623 7.16076 8.31474 7.29998C8.45326 7.4392 8.41459 7.60303 8.27888 7.73311C7.0442 8.92279 6.04646 10.3192 4.94255 11.6186C4.76748 11.8246 4.59099 11.8457 4.35615 11.7859C3.58693 11.5912 2.8149 11.4055 2.04287 11.2185C1.95386 11.1907 1.86118 11.1765 1.76795 11.1763C1.55701 11.1918 1.4199 11.3598 1.35451 11.5145C1.29755 11.6495 1.51412 11.6741 1.61256 11.7297C2.44576 12.2015 3.2874 12.6578 4.1199 13.131C4.29076 13.2287 4.39341 13.228 4.53474 13.0769C4.88631 12.7007 5.25967 12.3456 5.62248 11.98C5.7631 11.8351 5.92201 11.7191 6.10131 11.9019C6.2806 12.0847 6.16037 12.2394 6.01693 12.3815C5.66537 12.7274 5.33279 13.0895 4.96787 13.4179C4.76818 13.5972 4.77943 13.7301 4.90459 13.9466C5.37146 14.7559 5.81162 15.58 6.27287 16.3921C6.32701 16.4877 6.3474 16.7064 6.49013 16.6431C6.64412 16.5728 6.81287 16.4385 6.82412 16.2255C6.82235 16.1322 6.80768 16.0397 6.78052 15.9505C6.59302 15.179 6.40412 14.4079 6.21381 13.6372C6.16529 13.439 6.14349 13.2639 6.33334 13.1008C7.71146 11.9237 9.19435 10.8676 10.4459 9.54506C10.5676 9.41639 10.7187 9.39108 10.8509 9.51694C10.9951 9.65756 10.969 9.81084 10.834 9.94795C10.6365 10.1483 10.4466 10.3572 10.2343 10.54C10.0627 10.689 10.0486 10.8022 10.1738 11.004C10.9037 12.1733 11.6152 13.3546 12.3324 14.5316C12.7697 15.2495 13.2043 15.9702 13.6486 16.6839C13.6922 16.7542 13.7 16.9131 13.8533 16.8597C14.1212 16.7662 14.4066 16.2381 14.3454 15.9554C13.7506 13.2646 13.1586 10.5723 12.5504 7.88428C12.4864 7.60303 12.5504 7.42865 12.7465 7.236C13.8624 6.1342 14.9572 5.01061 16.0815 3.91725C16.6369 3.37514 16.9449 2.76412 16.869 2.06662Z" fill="#FCFCFD"/>
<path d="M11.3157 7.31686C11.303 7.58897 11.0576 7.71975 10.8776 7.58475C10.7132 7.45379 10.5628 7.30604 10.429 7.14389C10.4043 7.1184 10.385 7.08809 10.3725 7.05483C10.36 7.02158 10.3544 6.9861 10.3562 6.95061C10.358 6.91512 10.3671 6.88038 10.3829 6.84855C10.3986 6.81672 10.4208 6.78849 10.448 6.76561C10.4709 6.73825 10.4994 6.71619 10.5316 6.70093C10.5638 6.68568 10.599 6.67761 10.6346 6.67728C10.6702 6.67694 10.7055 6.68436 10.738 6.699C10.7705 6.71364 10.7994 6.73517 10.8228 6.76209C11.0105 6.94561 11.2419 7.09748 11.3157 7.31686Z" fill="#FCFCFD"/>
<path d="M9.32513 9.34537C9.32513 9.56193 9.08396 9.7117 8.90818 9.5774C8.72154 9.43759 8.55581 9.27186 8.41599 9.08521C8.28451 8.90662 8.44341 8.66334 8.66209 8.67529C8.83576 8.68232 9.32302 9.17732 9.32513 9.34537Z" fill="#FCFCFD"/>
<path d="M12.3043 6.32193C12.2895 6.60318 12.0504 6.72623 11.8662 6.58912C11.7012 6.45981 11.5516 6.31188 11.4204 6.14826C11.3962 6.12246 11.3775 6.092 11.3655 6.05874C11.3534 6.02548 11.3483 5.99011 11.3503 5.9548C11.3523 5.91948 11.3615 5.88494 11.3774 5.85329C11.3932 5.82164 11.4152 5.79353 11.4422 5.77068C11.4658 5.74415 11.4947 5.72291 11.5271 5.70836C11.5594 5.69382 11.5945 5.6863 11.63 5.6863C11.6655 5.6863 11.7005 5.69382 11.7329 5.70836C11.7653 5.72291 11.7942 5.74415 11.8177 5.77068C12.004 5.95561 12.2459 6.09834 12.3043 6.32193Z" fill="#FCFCFD"/>
<path d="M10.0409 8.63803C9.86021 8.63803 9.33779 8.11139 9.36873 7.94123C9.40388 7.73803 9.54029 7.60514 9.74209 7.7085C9.96783 7.8342 10.1554 8.01859 10.2849 8.24217C10.3911 8.41303 10.2385 8.63803 10.0409 8.63803Z" fill="#FCFCFD"/>
<path d="M6.75451 11.5314C6.53795 11.5314 6.38748 11.2874 6.52248 11.1095C6.67797 10.9208 6.85101 10.7473 7.03927 10.5913C7.12435 10.5161 7.23755 10.5358 7.33177 10.604C7.37114 10.6295 7.40305 10.665 7.42429 10.7069C7.44552 10.7487 7.45533 10.7955 7.45271 10.8423C7.44146 11.009 6.91763 11.5258 6.75451 11.5314Z" fill="#FCFCFD"/>
</svg>
