<svg width="18" height="18" viewBox="0 0 18 18" fill="none" xmlns="http://www.w3.org/2000/svg">
<path d="M16.4881 13.4036C16.4881 13.7767 16.3171 14.1556 15.96 14.5261C15.6016 14.8981 15.0684 15.2469 14.3864 15.5463C13.0233 16.1446 11.1191 16.5223 9 16.5223C6.88087 16.5223 4.97671 16.1446 3.61357 15.5463C2.93157 15.2469 2.39844 14.8981 2.03997 14.5261C1.68292 14.1556 1.51191 13.7767 1.51191 13.4036C1.51191 13.0304 1.68292 12.6516 2.03997 12.281C2.39844 11.909 2.93157 11.5603 3.61357 11.2609C4.97671 10.6625 6.88087 10.2849 9 10.2849C11.1191 10.2849 13.0233 10.6625 14.3864 11.2609C15.0684 11.5603 15.6016 11.909 15.96 12.281C16.3171 12.6516 16.4881 13.0304 16.4881 13.4036Z" fill="#1D2939" stroke="#FCFCFD" stroke-width="0.6"/>
<path d="M9 1.5C7.80653 1.5 6.66193 1.97411 5.81802 2.81802C4.97411 3.66193 4.5 4.80653 4.5 6C4.5 7.06425 4.7265 7.761 5.34375 8.53125L9 12.75L12.6562 8.53125C13.2735 7.761 13.5 7.06425 13.5 6C13.5 4.80653 13.0259 3.66193 12.182 2.81802C11.3381 1.97411 10.1935 1.5 9 1.5Z" fill="#1D2939"/>
<path d="M9 1.5C7.80653 1.5 6.66193 1.97411 5.81802 2.81802C4.97411 3.66193 4.5 4.80653 4.5 6C4.5 7.06425 4.7265 7.761 5.34375 8.53125L9 12.75L12.6562 8.53125C13.2735 7.761 13.5 7.06425 13.5 6C13.5 4.80653 13.0259 3.66193 12.182 2.81802C11.3381 1.97411 10.1935 1.5 9 1.5Z" stroke="#FCFCFD" stroke-width="0.6" stroke-linecap="round" stroke-linejoin="round"/>
<path d="M9 6.75C9.41421 6.75 9.75 6.41421 9.75 6C9.75 5.58579 9.41421 5.25 9 5.25C8.58579 5.25 8.25 5.58579 8.25 6C8.25 6.41421 8.58579 6.75 9 6.75Z" stroke="#FCFCFD" stroke-width="0.6" stroke-linecap="round" stroke-linejoin="round"/>
</svg>
