<svg width="111" height="32" viewBox="0 0 111 32" fill="none" xmlns="http://www.w3.org/2000/svg">
<g clip-path="url(#clip0_5369_20875)">
<path d="M0.911133 6.57809C1.12059 6.15119 1.46411 5.82869 1.76573 5.47621C2.32498 4.82294 2.94289 4.21618 3.46968 3.53914C4.0614 2.77836 4.88562 2.62435 5.73917 2.64192C6.47228 2.65639 7.21062 2.74529 7.90603 3.04505C8.15738 3.15358 8.4412 3.24351 8.73444 3.18253C8.84964 3.20733 8.95123 3.26832 9.06748 3.28589C9.14061 3.30088 9.2124 3.32162 9.28218 3.34791C9.58694 3.49986 9.93464 3.52363 10.2405 3.66938C10.4038 3.77274 10.5211 3.9464 10.7264 3.99188C10.8385 4.03736 10.9296 4.12006 11.0406 4.16554C11.2291 4.21825 11.382 4.34229 11.5642 4.41154C11.7221 4.47326 11.8649 4.56733 11.9832 4.68753C12.0198 4.71751 12.0533 4.74852 12.0879 4.77953C12.1926 4.87462 12.3413 4.88289 12.4597 4.95111C12.555 5.02243 12.661 5.07858 12.7739 5.11753C13.2116 5.4173 13.6609 5.69845 14.0997 5.99408C14.2649 6.06556 14.4149 6.16728 14.5417 6.29384C14.6747 6.44785 14.8925 6.46852 15.0413 6.59877C15.1775 6.74213 15.3376 6.86136 15.5146 6.95124C15.9472 7.251 16.4111 7.50218 16.8091 7.85363C17.249 8.24332 17.3663 8.22574 17.7977 7.80711C17.9873 7.62416 18.1695 7.435 18.3518 7.2448C18.4434 7.15057 18.5445 7.06573 18.6534 6.99156C18.6907 6.97618 18.7308 6.96826 18.7712 6.96826C18.8117 6.96826 18.8517 6.97618 18.889 6.99156C19.0025 7.06426 19.0992 7.1597 19.1728 7.27168C19.2776 7.50942 19.2357 7.78851 19.4001 8.01178C19.4227 8.05914 19.4402 8.10867 19.4525 8.15959C19.4741 8.33805 19.5415 8.50811 19.6483 8.65368C19.6953 8.77656 19.7249 8.90526 19.7363 9.03613C19.9887 9.54469 20.0253 10.138 20.3793 10.6052C20.5123 10.8574 20.4443 11.1603 20.5888 11.4104C20.6108 11.4849 20.6265 11.5593 20.6433 11.6348C20.6903 11.7836 20.7487 11.9288 20.8182 12.0689C20.8494 12.1471 20.8729 12.2281 20.8883 12.3108C21.2245 13.2535 21.5774 14.19 21.9084 15.1337C22.0037 15.4076 22.1922 15.7539 21.7146 15.9193C20.5783 15.7973 19.4577 15.5637 18.3423 15.3384C16.9086 15.0479 15.4445 14.9176 14.0317 14.5259C13.751 14.4473 13.463 14.4752 13.1792 14.4494C12.776 14.4132 12.4293 14.2913 12.3141 13.8478C12.2984 13.7556 12.2953 13.6618 12.3047 13.5687C12.3098 13.5101 12.3229 13.4524 12.3434 13.3971C12.5812 13.0974 12.9781 12.9599 13.1739 12.6147C13.4494 12.3366 13.418 12.1557 13.0849 11.8963C12.0644 11.1021 11.0039 10.3593 9.90741 9.6708C8.33647 8.68262 6.68069 7.80298 4.91076 7.16831C4.07292 6.86959 3.21414 6.75485 2.34907 6.63081C2.16894 6.60393 2.00975 6.66802 1.84009 6.68456C1.5238 6.72281 1.1939 6.82411 0.911133 6.57809Z" fill="#ECD354"/>
<path d="M20.5008 11.4621C20.306 11.2305 20.2798 10.9628 20.3269 10.6796C20.6746 10.3426 21.1344 10.1297 21.4213 9.72451C21.4824 9.63878 21.5488 9.55696 21.6203 9.47953C21.8821 9.28726 22.0864 9.44438 22.2791 9.59736C22.6173 9.86715 22.9619 10.1297 23.296 10.4047C23.9212 10.8417 24.5033 11.3359 25.0345 11.8807C25.0795 11.9086 25.1225 11.9386 25.1654 11.9696C25.7938 12.4286 26.3478 12.9733 26.9165 13.4963C27.46 13.9966 28.0204 14.4742 28.5922 14.9434C29.1598 15.5543 29.806 16.0918 30.3485 16.7275C30.8826 17.1958 31.2963 17.7705 31.7592 18.3008C32.3373 18.862 32.9207 19.4192 33.2411 20.1769C34.0025 21.1351 34.7492 22.1026 35.4593 23.099C35.6761 23.4039 35.719 23.6065 35.4813 23.9383C33.4726 26.7292 31.2722 29.3568 28.6173 31.5874C27.9429 32.1539 27.9439 32.159 27.3867 31.4644C27.3341 31.3864 27.2531 31.3312 27.1605 31.3104C27.0307 31.2277 26.971 31.0882 26.8809 30.9714C26.8484 30.9341 26.817 30.8949 26.7866 30.8556C26.3593 30.3119 25.976 29.7361 25.4702 29.2565C25.1015 28.8431 24.8114 28.3758 24.4533 27.9572C23.1965 26.4822 21.8067 25.1374 20.4201 23.7864C18.5994 22.0184 16.6713 20.3614 14.6464 18.8248C14.4138 18.6606 14.1972 18.4754 13.9991 18.2718C13.9473 18.1736 13.9255 18.0627 13.9363 17.9524C14.0808 17.4356 14.5804 17.1948 14.8872 16.803C14.9972 16.6996 15.1135 16.6118 15.2182 16.5063C15.2873 16.435 15.3481 16.3565 15.414 16.2831C15.4886 16.2086 15.583 16.1567 15.6863 16.1332C15.857 16.1208 16.0581 16.0794 16.1272 16.2851C16.1807 16.4464 16.0351 16.5642 15.9293 16.6697C15.6057 16.9932 15.3721 17.3932 15.0171 17.6888C14.7679 17.8956 14.7658 18.0455 15.0454 18.2553C16.1115 19.0564 17.14 19.9019 18.1517 20.7712C20.1185 22.4856 21.991 24.3026 23.761 26.2145C25.2067 27.7525 26.5484 29.3826 27.7774 31.0944C28.0005 31.4045 28.1963 31.2856 28.3859 31.1047C29.0415 30.469 29.7798 29.9222 30.4009 29.2441C31.91 27.6089 33.3699 25.9364 34.6759 24.1337C35.1147 23.528 35.1179 23.5414 34.6675 22.9212C32.6043 20.0987 30.2718 17.4777 27.702 15.0944C25.9928 13.4974 24.2009 11.9934 22.3765 10.5194C22.0623 10.261 21.812 10.1938 21.5323 10.5638C21.3742 10.7706 21.171 10.9525 21.0087 11.1623C20.8767 11.3215 20.772 11.5303 20.5008 11.4621Z" fill="#68B754"/>
<path d="M22.3356 1.11725C22.6048 1.2754 22.7022 1.54932 22.8142 1.8129C22.8831 1.86463 22.9389 1.9314 22.9772 2.00798C23.0156 2.08456 23.0354 2.16886 23.0352 2.25427C23.0164 3.34892 22.7933 4.37327 21.967 5.1816C21.3721 5.20123 20.9197 5.49169 20.5521 5.92583C20.5082 5.98815 20.4524 6.04132 20.3877 6.08229C20.323 6.12326 20.2507 6.15124 20.175 6.16461C20.1172 6.1447 20.0663 6.10883 20.0284 6.06124C19.7781 5.56508 19.7048 5.01724 19.5728 4.48904C19.2848 3.33548 18.9549 2.19432 18.6303 1.05006C18.4617 0.452607 18.6355 0.261382 19.245 0.373017C20.108 0.5322 20.9668 0.714122 21.8287 0.878474C22.0182 0.905816 22.1949 0.989047 22.3356 1.11725Z" fill="#3775A7"/>
<path d="M0.911633 6.57798C1.32113 6.5542 1.7568 6.47461 2.12755 6.47461C2.62819 6.47501 3.12739 6.52767 3.6168 6.63172C5.18042 6.98524 6.58379 7.72947 8.01545 8.39825C8.24481 8.50161 8.40923 8.70008 8.62288 8.80654C10.1739 9.58075 11.5553 10.5999 12.9168 11.6501C12.9743 11.699 13.036 11.7429 13.1011 11.7814C13.785 12.1515 13.7861 12.1504 13.2572 12.7065C12.9765 12.8047 12.8445 12.5267 12.6288 12.4657C12.1559 12.0621 11.6578 11.6883 11.1374 11.3462C11.0264 11.2801 10.9018 11.2377 10.7939 11.1664C10.2954 10.7405 9.72987 10.4118 9.17271 10.0717C8.38305 9.60969 7.61433 9.11147 6.77649 8.73419C6.48639 8.56363 6.17744 8.42409 5.88211 8.26594C5.71998 8.18325 5.55112 8.1141 5.37731 8.05921C5.13748 7.95584 4.88299 7.88039 4.63582 7.79252C4.5314 7.71403 4.41264 7.65613 4.28602 7.62197C3.9666 7.53514 3.64298 7.46175 3.32042 7.38939C2.76263 7.26697 2.18768 7.24005 1.62066 7.3098C0.812142 7.42351 0.513663 7.8349 0.659238 8.65356C0.789102 9.38642 1.18289 10.019 1.5065 10.6754C1.56515 10.7932 1.62903 10.909 1.69711 11.0206C1.95265 11.5271 2.34015 11.9602 2.54437 12.4957C2.54437 12.6414 2.61245 12.8492 2.46582 12.9091C2.27103 12.9856 2.1841 12.7675 2.09403 12.6373C1.22163 11.3814 0.512615 10.0428 0.0654188 8.58017C-0.155561 7.84111 0.177478 7.08137 0.911633 6.57798Z" fill="#EFDB6E"/>
<path d="M18.8867 30.5351L18.6772 30.1991C18.5474 30.0172 18.6364 29.9428 18.8207 29.9149C18.924 29.995 19.0461 30.0482 19.1757 30.0695C19.3052 30.0908 19.4382 30.0796 19.5622 30.0369C20.0911 29.887 20.6158 29.7185 21.1552 29.6079C21.6139 29.5128 21.6348 29.3133 21.3248 29.0146C20.8882 28.5182 20.375 28.093 19.8041 27.7545C19.3475 27.4837 19.2805 27.522 19.2616 28.0646C19.2693 28.3459 19.2581 28.6273 19.2281 28.9071C19.0899 29.2244 19.3077 29.6554 18.9087 29.889C18.6563 29.7805 18.6416 29.5686 18.6636 29.3412C18.7862 28.9009 18.7307 28.4492 18.7338 27.9974C18.7338 27.6181 18.5673 27.4806 18.1944 27.6408C17.6237 27.891 17.0288 28.0936 16.5188 28.4585C16.0454 28.7003 15.571 28.9412 15.2023 29.3371C15.1269 29.4177 15.0012 29.487 15.0232 29.6079C15.0536 29.7733 15.2222 29.7629 15.3447 29.7805C16.2109 29.9056 17.0791 30.0162 17.942 30.1557C18.1337 30.1867 18.383 30.1288 18.4573 30.4048C18.3578 30.4317 18.2479 30.4441 18.1944 30.5485C17.21 30.6674 16.2685 30.3862 15.3133 30.2384C15.2212 30.2239 15.1363 30.1681 15.0494 30.1805C15.2484 30.2105 15.438 30.2674 15.4683 30.5227C15.3636 30.626 15.3427 30.9361 15.0986 30.655C14.1404 29.9531 13.0156 29.5438 12.0049 28.9339C11.0142 28.3355 10.035 27.7246 9.23377 26.9193C9.25786 27.2491 9.64117 27.5612 9.3385 27.953C8.84418 27.7339 8.88921 27.215 8.69232 26.8294C8.66823 26.4511 8.33834 26.2216 8.21894 25.8877C8.20009 25.741 8.21057 25.6045 8.35928 25.5187C8.49974 25.4972 8.64342 25.5246 8.76563 25.5963C8.8955 25.6924 8.98766 25.8268 9.10915 25.9322C9.96584 27.2294 11.2959 27.9571 12.5652 28.7127C11.6281 27.7397 10.8188 26.6541 10.1564 25.4815C10.0716 25.3347 9.98678 25.1838 10.0088 25.0029C10.021 24.964 10.0421 24.9283 10.0704 24.8985C10.0987 24.8688 10.1335 24.8458 10.1722 24.8314C10.5387 24.9781 10.6036 25.3616 10.8162 25.6293C11.608 27.0329 12.6716 28.2692 13.9466 29.2678C14.1938 29.459 14.353 29.5314 14.5938 29.2327C14.9279 28.8192 15.4024 28.5494 15.8506 28.261C16.591 27.7907 17.3954 27.4413 18.3453 27.0392C16.0412 25.7317 13.8712 24.4448 11.6426 23.2674C11.5194 23.1983 11.4171 23.098 11.3462 22.977C11.2959 22.8736 11.2299 22.7702 11.3336 22.6669C11.3842 22.6379 11.4409 22.621 11.4992 22.6174C11.5576 22.6138 11.616 22.6237 11.6698 22.6462C13.8314 23.9641 16.0684 25.157 18.2604 26.4222C18.6228 26.6289 18.8459 26.5193 18.9349 26.1379C19.0564 25.6211 19.1653 25.1042 19.3161 24.5988C19.3768 24.392 19.3999 24.1295 19.735 24.1853C19.8031 24.2766 19.8331 24.3902 19.8188 24.5026C19.7308 25.0195 19.5978 25.5363 19.4732 26.0449C19.4386 26.1875 19.358 26.355 19.4868 26.4728C19.6156 26.5906 19.7748 26.4728 19.9057 26.418C20.3246 26.2475 20.7352 26.0387 21.1751 25.9074C21.2575 25.8986 21.3405 25.9175 21.4107 25.9611C21.5259 26.2495 21.2735 26.3105 21.1112 26.4087C20.7865 26.6061 20.4231 26.724 20.0733 26.8708C19.7235 27.0175 19.7361 27.1467 20.0523 27.3369C20.7341 27.7504 21.3918 28.1959 21.8432 28.873C22.059 29.3722 22.4119 29.0797 22.724 29.0208C22.7767 29.0234 22.8264 29.0455 22.8633 29.0828C22.9156 29.1435 22.9555 29.2137 22.9806 29.2895C23.0035 29.3665 22.9976 29.4491 22.9638 29.5221C22.9328 29.5654 22.8942 29.6029 22.8497 29.6327C22.2569 29.7557 21.839 30.1599 21.3908 30.5165C21.2756 30.6085 21.418 30.6198 21.4285 30.6736C21.1499 30.81 20.8724 30.9113 20.6053 30.6508C20.7258 30.2374 21.107 30.1568 21.462 29.9717C20.8012 30.2415 20.1382 30.378 19.4858 30.5537C19.2763 30.5971 19.0742 30.7098 18.8867 30.5351Z" fill="#DAE6EF"/>
<path d="M30.1414 5.36144C30.5886 5.86173 30.8504 6.47469 31.1887 7.0401C31.6516 7.44323 31.8234 8.01381 32.0349 8.54924C32.3659 9.35066 32.5843 10.193 32.6842 11.0528C32.7041 11.243 32.8455 11.5107 32.59 11.6027C32.3564 11.6874 32.236 11.4218 32.1176 11.2667C31.731 10.7537 31.3003 10.2744 30.8305 9.83408C30.3519 9.2697 29.7727 8.80869 29.2292 8.3115C28.9077 8.01794 28.8323 7.72852 29.1664 7.39981C29.5647 6.93635 29.8166 6.36784 29.8911 5.76457C29.912 5.60952 29.8283 5.35524 30.1414 5.36144Z" fill="#99CF8B"/>
<path d="M14.069 18.2822C14.9362 18.7877 15.6965 19.442 16.46 20.0756C17.7827 21.1744 19.0353 22.3559 20.3151 23.5053C20.38 23.5735 20.4392 23.6468 20.4921 23.7244C21.0555 24.3818 21.6818 24.9824 22.285 25.6036C22.8883 26.2249 23.4088 26.9205 23.9481 27.5965C24.0435 27.7143 24.1069 27.8541 24.1325 28.0028C24.3702 28.7801 24.8143 29.4726 25.075 30.2386C25.1379 30.4236 25.2971 30.4174 25.4437 30.4453C25.6238 30.5487 25.8228 30.6458 25.5484 30.8588L24.898 31.3084C24.5524 30.8112 24.6216 30.161 24.1796 29.7434C24.0152 29.6091 23.9796 29.3972 23.8654 29.2338C23.834 29.1666 23.8089 29.0974 23.7837 29.0271C23.6949 28.8841 23.6181 28.734 23.5544 28.5785C23.5104 28.4886 23.4392 28.4162 23.3941 28.3273C23.0454 27.4125 22.3238 26.7376 21.8085 25.9303C21.1079 25.185 20.5654 24.3002 19.7506 23.6562C19.0175 23.036 18.2697 22.4448 17.5366 21.8339C16.9155 21.317 16.3228 20.763 15.6651 20.2834C15.5886 20.2141 15.5195 20.1366 15.4389 20.0767C14.9927 19.8027 14.6366 19.411 14.1821 19.1464C14.0558 19.0664 13.9661 18.9411 13.9318 18.797C13.9088 18.6078 13.893 18.4207 14.069 18.2822Z" fill="#448840"/>
<path d="M22.3357 1.1175C21.2737 0.910766 20.2107 0.704035 19.1508 0.491101C18.7717 0.413576 18.5738 0.406341 18.7319 0.904564C19.2901 2.62664 19.7248 4.37352 20.1437 6.12661C20.154 6.18251 20.1442 6.24023 20.1159 6.28971C20.0875 6.3392 20.0425 6.37731 19.9887 6.39743C19.961 6.39632 19.934 6.38882 19.9098 6.37553C19.8856 6.36225 19.8649 6.34355 19.8494 6.32093C19.4053 4.60196 18.977 2.87782 18.4586 1.17848C18.3046 0.67199 18.3036 0.661656 17.8438 0.976922C17.339 1.31906 16.8395 1.66844 16.3399 2.01781C16.0624 2.21111 15.8896 2.44368 16.1692 2.76722C16.4648 3.22671 16.8073 3.65516 17.1913 4.04585C17.8627 5.02473 18.822 5.74519 19.5938 6.63C19.6191 6.67654 19.6378 6.72627 19.6494 6.77781C19.7604 7.17577 19.6672 7.36286 19.2189 7.18094C19.1432 6.92968 19.0011 6.7028 18.8073 6.52353C18.0596 5.85786 17.4458 5.06297 16.7431 4.35285C16.3587 3.90011 16.033 3.40292 15.6675 2.93674C15.5083 2.70003 15.3324 2.75481 15.1523 2.90986C14.9857 3.03597 14.859 3.22926 14.616 3.23133C14.5756 3.22283 14.5385 3.20268 14.5096 3.17343C14.4808 3.14418 14.4613 3.10714 14.4537 3.06698C14.454 2.956 14.4962 2.8491 14.5721 2.76722C15.3764 2.24418 14.6412 1.70875 14.5836 1.10613C13.6232 1.72632 13.0566 2.58529 12.644 3.56727C12.5136 3.85271 12.4085 4.14875 12.3298 4.45208C12.2952 4.6216 12.2795 4.83247 12.025 4.84694L11.9611 4.74357C11.825 4.56682 11.8239 4.36422 11.8564 4.15852C12.4565 2.68142 13.1582 1.27875 14.6663 0.475597C14.69 0.459682 14.7092 0.438222 14.7224 0.413144C14.7355 0.388067 14.7422 0.360155 14.7417 0.331917C15.0109 0.0786702 15.2758 0.309176 15.5419 0.338118C15.5963 0.56759 15.3596 0.590331 15.2643 0.713337C15.0182 1.03067 15.0674 1.35627 15.2821 1.64983C15.4968 1.94339 15.7712 1.78007 15.9911 1.6426C16.797 1.14304 17.57 0.593762 18.3057 -0.00195312H18.5403C19.552 0.255428 20.5898 0.382568 21.6078 0.61204C21.8633 0.669925 22.144 0.67199 22.3315 0.900429L22.3357 1.1175Z" fill="#DAEAF2"/>
<path d="M29.0009 4.43154C29.1894 4.66101 29.5497 4.68478 29.6816 4.98351C29.5109 5.42385 29.1705 5.60991 28.7097 5.60991C28.3128 5.60991 27.9148 5.64609 27.5221 5.5696C27.0068 5.3763 26.7607 4.89255 26.4476 4.5101C25.7951 3.71315 25.0033 3.07434 24.2336 2.40557C24.0775 2.27016 23.8848 2.16679 23.8838 1.92388C23.8931 1.88217 23.9135 1.84366 23.943 1.81239C23.9724 1.78112 24.0099 1.75823 24.0514 1.74609C24.7384 1.81018 25.2756 2.23088 25.8663 2.5141C26.8089 2.96581 27.6928 3.51572 28.5767 4.06459C28.7317 4.16485 28.9098 4.25375 29.0009 4.43154Z" fill="#3775A7"/>
<path d="M2.54952 12.4935C2.14631 12.1038 1.88658 11.6201 1.63 11.1332C1.59072 11.058 1.56731 10.9757 1.56119 10.8913C1.55507 10.8069 1.56636 10.7222 1.59439 10.6422C1.93581 9.55897 2.44794 8.55322 3.03128 7.58158C3.11236 7.4519 3.22599 7.34509 3.36118 7.27148C3.72773 7.27769 4.05763 7.42757 4.40324 7.51853C4.46922 7.59295 4.53624 7.70355 4.48388 7.77384C4.08591 8.31341 3.96023 9.007 3.49314 9.50419C3.03233 10.4583 2.82287 11.4857 2.54952 12.4935Z" fill="#D09C35"/>
<path d="M4.89856 23.1466C3.6041 21.6902 3.13282 19.9185 2.90137 18.0548C2.91409 18.0104 2.93887 17.9703 2.97301 17.9388C3.00716 17.9072 3.04938 17.8855 3.09512 17.876C4.05863 18.1447 4.31313 18.4672 4.31731 19.4265C4.32098 19.4829 4.32098 19.5395 4.31731 19.596C4.18117 20.6379 4.56867 21.4638 5.45887 22.0044C6.24643 22.483 6.30613 23.128 6.07991 23.897C6.06046 23.9304 6.03331 23.9588 6.00068 23.9798C5.96804 24.0009 5.93084 24.0141 5.89208 24.0183C5.85332 24.0225 5.81409 24.0177 5.77759 24.0042C5.74108 23.9906 5.70831 23.9688 5.68194 23.9405C5.39812 23.7017 5.04937 23.5167 4.89856 23.1466Z" fill="#24527D"/>
<path d="M14.7416 0.342285C14.7761 0.392934 15.0139 0.382598 14.8463 0.477694C13.445 1.28291 12.647 2.54501 12.049 3.97146C12.0298 4.00388 12.0069 4.03405 11.9809 4.06139C11.8797 4.26885 11.7081 4.43485 11.496 4.53067L10.9545 4.27742C10.942 3.96733 11.2007 3.83605 11.3735 3.65723C11.5882 3.43913 11.5347 3.36057 11.2687 3.2355C11.0027 3.11042 10.7451 3.32749 10.5251 3.13213C10.4026 2.67525 10.545 2.31657 10.9346 2.04886C11.8573 1.10099 13.1224 0.875653 14.3111 0.491132C14.4598 0.440483 14.6002 0.390867 14.7416 0.342285Z" fill="#3875A7"/>
<path d="M18.8867 29.8925C18.7265 29.9329 18.6437 30.0269 18.6772 30.1964C18.6595 30.2461 18.6298 30.2909 18.5908 30.3269C18.5518 30.3629 18.5046 30.389 18.4531 30.4032L14.5781 29.7933C15.0704 29.0759 15.749 28.6749 16.4748 28.3286C17.1032 28.4144 17.7179 28.5353 18.34 28.6387C18.7307 28.7028 18.9338 28.8775 18.7977 29.293C18.7662 29.5024 18.7979 29.7163 18.8888 29.908L18.8867 29.8925Z" fill="#23527E"/>
<path d="M9.45124 27.9739L9.00195 26.6808C9.07212 26.5681 9.12344 26.6291 9.15067 26.656C10.53 28.0277 12.1952 28.9735 13.9483 29.7859C14.384 29.9926 14.7548 30.2769 15.1276 30.5663C15.137 30.5736 15.137 30.6035 15.1276 30.618C15.1182 30.6325 15.0993 30.6418 15.0847 30.6542C14.3976 30.4475 13.698 30.2821 13.0278 30.034C11.771 29.574 10.5143 29.114 9.56645 28.1124C9.54948 28.1113 9.53292 28.1067 9.5178 28.0991C9.50267 28.0914 9.48931 28.0807 9.47851 28.0677C9.46772 28.0548 9.45973 28.0397 9.45504 28.0236C9.45035 28.0075 9.44906 27.9905 9.45124 27.9739Z" fill="#25527D"/>
<path d="M2.9209 12.5113C3.06438 11.7081 3.11465 10.874 3.69904 10.2155C3.9085 9.88061 4.23735 9.73899 4.59553 9.63459C4.71174 9.59968 4.83514 9.59505 4.9537 9.62116C5.00465 9.65945 5.04145 9.71319 5.05843 9.77414C4.98722 10.6104 4.81546 11.428 4.73377 12.2684C4.68455 12.7707 4.69711 13.2731 4.65313 13.7734C4.64375 13.8636 4.61211 13.9502 4.56097 14.0256C4.28762 14.1765 4.23316 13.9222 4.16195 13.7847C3.9263 13.3186 3.84776 12.717 3.09161 12.7759C2.96803 12.7852 2.96803 12.6084 2.9209 12.5113Z" fill="#46B093"/>
<path d="M33.2345 20.1802C32.6993 19.56 32.2155 18.8985 31.6122 18.3372C31.4677 17.9434 31.6374 17.6736 31.984 17.5103C32.5249 17.2351 33.0353 16.9049 33.5068 16.5252C33.6251 16.4342 33.756 16.2812 33.9006 16.3567C34.0849 16.4518 33.998 16.6461 33.9571 16.8053C33.7958 17.9444 33.6325 19.0866 33.2345 20.1802Z" fill="#3775A7"/>
<path d="M2.92061 12.5117C2.97612 12.5613 3.0421 12.6616 3.08504 12.6533C3.92288 12.4848 4.04017 13.1061 4.23707 13.656C4.30397 13.8077 4.38422 13.9533 4.4769 14.0911L4.55335 14.1449C4.6497 14.6318 4.4947 15.0928 4.3795 15.5517C4.31666 15.7988 4.1271 15.9125 3.85585 15.7946C3.50291 15.4794 3.10284 15.2034 2.90595 14.7496C2.42315 13.9971 2.7719 13.257 2.92061 12.5117Z" fill="#24527E"/>
<path d="M24.0542 28.0422C23.5693 27.2153 22.9189 26.5072 22.2895 25.7909C21.7658 25.1976 21.2097 24.6373 20.6651 24.0647C20.6143 24.0225 20.5727 23.9706 20.5426 23.9122C20.5126 23.8538 20.4948 23.79 20.4902 23.7246C21.5166 24.6549 22.5293 25.5914 23.4132 26.653C23.7725 27.083 24.3055 27.3641 24.5171 27.9182C25.2454 28.9274 25.8723 30.0044 26.3886 31.1339C26.6379 31.1587 26.7122 30.8641 26.9353 30.8724C27.0007 30.9267 27.0541 30.9937 27.0922 31.0693C27.1302 31.1449 27.152 31.2274 27.1563 31.3117C26.2546 32.1179 26.2535 32.1179 25.7435 31.0481C25.7282 31.0041 25.7026 30.9643 25.6687 30.932C25.6349 30.8996 25.5937 30.8757 25.5487 30.862C25.6482 30.7008 25.6042 30.5922 25.4241 30.5333C25.29 30.4082 25.0921 30.3473 25.025 30.1529C24.7726 29.417 24.3694 28.7492 24.0542 28.0422Z" fill="#519D45"/>
<path d="M18.3056 0.00816911C18.3538 0.250045 18.1601 0.333771 18.0082 0.440238C17.3798 0.874374 16.764 1.31678 16.1293 1.73645C15.8099 1.94835 15.4633 2.26671 15.1302 1.73645C14.816 1.23202 14.8988 0.75757 15.3575 0.481583C15.4224 0.442304 15.4811 0.39579 15.5418 0.352376C16.4352 0.00920139 17.3673 -0.018706 18.3056 0.00816911Z" fill="#3875A7"/>
<path d="M29.0011 4.43127C27.5799 3.6674 26.2184 2.78879 24.7522 2.10968C24.5291 2.00631 24.3018 1.91018 24.0756 1.81095C23.995 1.77373 23.9007 1.79648 23.8222 1.7541C23.8222 1.83679 23.9175 1.8771 23.9269 1.96083C25.2015 3.02343 26.4163 4.14392 27.4238 5.467L27.3599 5.52075C27.2814 5.55466 27.1935 5.56122 27.1107 5.53935C27.0579 5.52187 27.0094 5.49371 26.9683 5.45666C25.9063 4.1036 24.6328 2.96761 23.2085 1.8616C23.4179 3.08545 22.9676 4.0757 22.4314 5.04423C22.2931 5.21065 22.2429 5.4577 21.9884 5.51868C21.9298 5.51846 21.8737 5.49542 21.8323 5.45459C21.7779 5.33882 21.7705 5.23236 21.8952 5.1538C22.6461 4.16149 23.0252 3.06995 22.8126 1.82025C22.8702 1.57217 23.1006 1.45847 23.2462 1.27861C23.5918 1.07188 23.8672 1.31169 24.1406 1.4409C25.6644 2.16446 27.1683 2.92006 28.5643 3.86793C28.7382 3.95166 28.8377 4.11394 29.0597 4.17803C29.4053 4.26072 29.088 4.35065 29.0011 4.43127Z" fill="#DAEAF2"/>
<path d="M33.8101 14.1C33.896 14.6169 34.0195 15.1337 33.9818 15.6702C33.9485 15.6869 33.9186 15.7097 33.8939 15.7374C33.1964 16.5157 32.9827 16.5074 32.2863 15.6733C32.2685 15.6154 32.2621 15.5547 32.2674 15.4944C32.4214 14.7223 32.5586 13.944 32.7345 13.1801C32.7712 13.0199 32.7973 12.8245 33.0058 12.7904C33.2142 12.7563 33.3021 12.9341 33.3985 13.0674C33.6256 13.3698 33.7676 13.726 33.8101 14.1Z" fill="#99CE8B"/>
<path d="M33.8102 14.0999C33.5148 13.7185 33.4258 13.2078 32.9922 12.8419C32.6718 13.7484 32.678 14.6973 32.3502 15.5646C32.2976 15.5365 32.2517 15.4976 32.2156 15.4505C32.1794 15.4035 32.1539 15.3493 32.1408 15.2917C32.164 14.6941 32.2578 14.1012 32.4204 13.5252C32.6236 12.8357 32.5398 12.2321 32.1251 11.6594C31.8039 11.2169 31.4595 10.7911 31.0935 10.3839C30.9573 10.2309 30.7866 10.0965 30.7793 9.86705C30.7822 9.8379 30.7929 9.81005 30.8104 9.78641C30.8279 9.76277 30.8515 9.74421 30.8788 9.73267C31.5815 10.1968 31.9858 10.9338 32.6068 11.5933C32.4822 9.9084 31.8989 8.45301 31.193 7.03379C31.6946 6.93043 31.7219 7.34389 31.8622 7.63228C31.9983 8.23697 32.3754 8.74657 32.5471 9.33678C32.8268 10.0221 32.8802 10.757 32.9985 11.4734C33.1169 12.1897 33.43 12.8078 33.8468 13.3867C34.0856 13.642 33.8322 13.8673 33.8102 14.0999Z" fill="#E4EFDD"/>
<path d="M27.426 5.45992C27.6352 5.44704 27.8449 5.44463 28.0544 5.45268C28.6618 5.50333 29.2389 5.46715 29.6861 4.9834L29.8128 5.22528C30.105 5.90232 29.7385 6.45843 29.4641 7.02591C29.4045 7.16558 29.3173 7.2921 29.2075 7.39803C28.9739 7.643 28.6838 7.6306 28.5152 7.39079C28.0963 6.7768 27.6334 6.18348 27.3936 5.46715L27.426 5.45992Z" fill="#99CE8B"/>
<path d="M8.29437 25.9026C8.48393 26.1858 8.87248 26.3626 8.78765 26.7936C8.85677 27.1171 8.8662 27.4138 8.43367 27.4882C7.58969 26.8638 6.83846 26.1259 6.20188 25.2958C6.13275 25.0188 5.95262 24.7593 6.05944 24.4534C6.10762 24.3821 6.18302 24.35 6.25214 24.3914C6.96116 24.8586 7.73931 25.2348 8.29437 25.9026Z" fill="#519769"/>
<path d="M8.2949 25.9025L6.11024 24.4161C5.5468 24.2992 5.29021 23.7679 4.83987 23.4982C4.71105 23.3586 4.52045 23.2098 4.89433 23.1467L5.9919 24.0057C6.69463 24.2073 7.11984 24.8233 7.64558 25.0859C7.24865 24.7644 6.96798 24.2197 6.67264 23.7028C5.69132 21.9839 5.02105 20.1367 4.5016 18.2348C4.45477 18.0702 4.43914 17.8985 4.45551 17.7283C4.46247 17.6715 4.48338 17.6172 4.51641 17.5702C4.54945 17.5232 4.59361 17.4848 4.64507 17.4585C4.95926 17.5825 4.91946 17.8895 4.98649 18.1283C5.63477 20.4334 6.44747 22.663 7.8697 24.6404C8.06554 24.9132 8.36403 25.1241 8.44152 25.4756L8.40696 25.5551C8.275 25.6368 8.30956 25.7805 8.2949 25.9025Z" fill="#DDEAE2"/>
<path d="M28.566 3.86067C28.4455 4.03432 28.3806 3.86067 28.3073 3.81312C26.8833 2.94668 25.4078 2.16555 23.8887 1.47395C23.6856 1.38299 23.4908 1.24861 23.2478 1.26722C23.0897 1.2176 22.9336 1.17005 22.7734 1.11734C22.5587 1.04498 22.544 0.865122 22.5974 0.703872C22.6676 0.489904 22.8247 0.654256 22.9242 0.684232C24.9162 1.2813 26.7636 2.27356 28.3534 3.60019C28.4327 3.67995 28.5039 3.76719 28.566 3.86067Z" fill="#3C75A5"/>
<path d="M32.2236 15.3232C32.2655 15.4048 32.3085 15.4865 32.3503 15.5692C32.3503 15.596 32.3503 15.624 32.3566 15.6519C32.4938 16.2069 32.0602 16.64 32.0194 17.2075C32.5127 17.0442 32.8792 16.732 33.2573 16.4354C33.4301 16.301 33.5464 16.0715 33.8218 16.1056C34.0386 16.3051 34.1863 16.5191 33.959 16.8013C33.9496 16.6721 33.9401 16.5429 33.9244 16.3392C33.3068 16.8932 32.6172 17.3635 31.8738 17.7378C31.657 17.8484 31.6727 18.1233 31.6193 18.3373C31.1257 17.786 30.6331 17.2327 30.1416 16.6773C30.3511 16.6235 30.505 16.7279 30.6705 16.8261C31.1114 17.0886 31.1271 17.0721 31.1522 16.5439C31.1763 16.0705 31.0664 15.6136 31.0203 15.1464C31.0004 14.9397 30.9208 14.7391 31.0381 14.5407C31.0702 14.5097 31.1108 14.4886 31.1549 14.4799C31.1989 14.4713 31.2446 14.4755 31.2863 14.4921C31.3583 14.5424 31.4111 14.6153 31.4361 14.6988C31.5932 15.2984 31.6131 15.9185 31.6958 16.5346C31.8958 16.1873 31.9052 15.7738 32.1011 15.4255C32.1335 15.3826 32.1754 15.3477 32.2236 15.3232Z" fill="#DDE9EF"/>
<path d="M33.844 13.3931C33.8063 13.4499 33.8231 13.6143 33.688 13.4448C33.0166 12.6034 32.803 11.5987 32.7056 10.5784C32.6637 10.1412 32.4176 9.76495 32.4354 9.32771C32.3851 9.19541 32.3631 9.07654 32.5705 9.08067C33.2185 10.4444 33.6482 11.8992 33.844 13.3931Z" fill="#9ACF8D"/>
<path d="M2.6884 17.45C2.70411 16.6313 2.42762 15.8158 2.66221 14.9961C3.17644 14.9961 3.41732 15.3258 3.60478 15.7331C3.64579 16.1039 3.65175 16.4776 3.62259 16.8494C3.60059 17.1781 3.38171 17.3921 3.16178 17.6009C3.05705 17.697 2.98583 17.8903 2.8036 17.8076C2.66536 17.7446 2.75857 17.5616 2.6884 17.45Z" fill="#54986C"/>
<path d="M33.8211 16.1051C33.236 16.7156 32.5278 17.1984 31.7422 17.5223C31.9663 16.8411 32.1611 16.2457 32.3559 15.6514C32.8869 16.3935 33.4336 16.1103 33.9813 15.6741L33.8211 16.1051Z" fill="#3A76A5"/>
<path d="M22.3313 0.913864L18.7621 0.219245C18.6406 0.195471 18.5442 0.153091 18.54 0.0125133C19.6921 -0.00195794 20.82 0.183069 21.9417 0.418744C22.2024 0.472494 22.481 0.535545 22.3313 0.913864Z" fill="#4176A4"/>
<path d="M15.456 30.5221L14.9648 30.1645L14.9837 30.0776L18.1842 30.548C17.5004 31.225 16.7264 30.858 15.9776 30.7247C15.7972 30.6749 15.6224 30.607 15.456 30.5221Z" fill="#2D557F"/>
<path d="M18.8871 30.5352L21.587 29.854C21.3021 30.2458 20.9084 30.3956 20.5963 30.6448C20.1424 30.815 19.6642 30.9134 19.1793 30.9362C18.7823 30.9631 18.7342 30.8453 18.8871 30.5352Z" fill="#2B537B"/>
<path d="M21.414 30.6647L21.0098 30.642C21.6444 30.1831 22.0822 29.5432 22.9022 29.5122C23.1117 29.7127 23.1913 29.936 23.0237 30.2006C22.5147 30.4487 21.9461 30.4963 21.414 30.6647Z" fill="#29537C"/>
<path d="M10.2381 3.73785C9.85372 3.71822 9.4767 3.67584 9.18555 3.38228C9.32379 2.95538 9.65369 2.70833 10.0318 2.50573L10.4863 2.13672C10.525 2.13672 10.591 2.15429 10.591 2.16463C10.4999 2.69489 10.6539 3.27891 10.2381 3.73785Z" fill="#3B75A5"/>
<path d="M23.0236 30.2006C22.9838 29.9712 22.9433 29.7417 22.9021 29.5122L22.8906 29.4957C23.1839 29.2125 23.5138 29.0398 23.9379 29.1535C24.03 29.2205 24.1014 29.3115 24.1439 29.4164C24.1865 29.5212 24.1986 29.6356 24.1788 29.7469C23.8383 29.9912 23.4411 30.1472 23.0236 30.2006Z" fill="#1A3C61"/>
<path d="M3.49121 9.50756C3.67868 8.7933 4.14682 8.20515 4.40131 7.5219C4.4292 7.51557 4.45816 7.51549 4.48609 7.52165C4.51401 7.52781 4.54018 7.54006 4.56268 7.55751C4.58517 7.57496 4.60343 7.59715 4.6161 7.62247C4.62877 7.64779 4.63554 7.67559 4.63591 7.70383C4.78148 8.18758 4.4055 8.50698 4.23374 8.8822C4.09236 9.19229 4.06932 9.39903 4.41597 9.54581C4.21489 9.82179 4.01486 10.0978 3.60013 9.98304C3.56557 9.82386 3.93212 9.57578 3.49121 9.50756Z" fill="#7AABA9"/>
<path d="M4.84375 23.498C5.39672 23.6293 5.68159 24.1182 6.11412 24.4159C6.13088 24.7105 6.27855 24.9917 6.20209 25.2956C5.64703 24.7715 5.2899 24.1017 4.84375 23.498Z" fill="#385D7D"/>
<path d="M29.0996 7.37201C29.5604 6.72907 29.84 6.02825 29.8086 5.2251C29.9333 5.23854 30.0851 5.18582 30.1417 5.36154C29.9909 6.04169 29.884 6.73837 29.4358 7.31412C29.3738 7.38183 29.3069 7.44504 29.2358 7.50328C29.2018 7.49879 29.1701 7.48359 29.1456 7.45994C29.1211 7.43628 29.1049 7.40544 29.0996 7.37201Z" fill="#D8E9D0"/>
<path d="M10.2383 3.73756C10.2906 3.19902 10.5347 2.68943 10.4865 2.13642C10.5986 1.91418 10.7609 1.92969 10.941 2.04442C10.7808 2.39793 10.5441 2.72974 10.6038 3.14837C10.7818 3.444 10.8897 3.74686 10.7012 4.07866C10.4038 4.15205 10.3409 3.92051 10.2383 3.73756Z" fill="#D8E3E7"/>
<path d="M8.43359 27.4881C8.60221 27.2813 8.83785 27.1077 8.78653 26.7935C9.03474 27.1718 8.96039 27.7237 9.44947 27.9739L9.56677 28.1145C9.01694 28.2096 8.79701 27.7238 8.43359 27.4881Z" fill="#33597B"/>
<path d="M32.5706 9.08063C32.4659 9.13231 32.4533 9.23051 32.4355 9.32767C32.2323 8.76846 31.8249 8.27644 31.8595 7.63867C32.1192 8.10485 32.4187 8.55966 32.5706 9.08063Z" fill="#ADD4A5"/>
<path d="M10.0321 2.50575L9.18694 3.3823H8.94397C8.88846 3.066 9.20474 3.00398 9.34089 2.81895C9.49275 2.54296 9.67079 2.31659 10.0321 2.50575Z" fill="#C3D5E1"/>
<path d="M2.68832 17.45C2.7344 17.5482 2.78153 17.6464 2.84123 17.7715L3.49893 16.9559C3.50128 16.9214 3.51065 16.8876 3.52646 16.8568C3.54227 16.8259 3.56421 16.7984 3.59097 16.776C3.61774 16.7537 3.64878 16.7368 3.68227 16.7265C3.71575 16.7162 3.75099 16.7127 3.78589 16.7161C3.84038 16.7229 3.89224 16.7432 3.9367 16.775C4.0121 17.1048 3.70106 17.2102 3.55863 17.4138C3.38268 17.5844 3.27062 17.82 3.03498 17.9306L2.90407 18.0578C2.70403 17.8965 2.61082 17.7022 2.68832 17.45Z" fill="#D3E0E3"/>
<path d="M3.49143 15.6638C3.28197 15.3599 2.96778 15.1801 2.66406 14.995C2.7447 14.9134 2.82535 14.8307 2.90704 14.749L3.82866 15.6617C3.82279 15.6962 3.80791 15.7285 3.7855 15.7555C3.76309 15.7825 3.73392 15.8033 3.70089 15.8158C3.58254 15.8261 3.53332 15.7537 3.49143 15.6638Z" fill="#C0D0D9"/>
<path d="M3.59668 9.983C3.92239 9.95922 4.13813 9.72562 4.39682 9.56953C4.4145 9.53127 4.44493 9.50015 4.48305 9.48134C4.52116 9.46253 4.56465 9.45718 4.60628 9.46617C4.82411 9.56023 4.77175 9.65636 4.60628 9.75249L3.69198 10.2114L3.59668 9.983Z" fill="#CEE2D4"/>
<path d="M18.0703 30.9364C18.2211 30.7597 18.3782 30.6398 18.594 30.7059C18.6149 30.7121 18.6338 30.8145 18.6139 30.8486C18.4746 31.0812 18.2588 30.9489 18.0703 30.9364Z" fill="#58738C"/>
<path d="M9.34076 2.81592L8.94383 3.37926C8.78465 3.40717 8.7637 3.2914 8.73438 3.18287C8.93755 3.06296 9.08313 2.85003 9.34076 2.81592Z" fill="#60849C"/>
<path d="M21.7714 15.9134C21.9316 15.687 21.8761 15.4596 21.7903 15.2219C21.4363 14.242 21.0896 13.2579 20.743 12.277C21.1168 11.8408 21.4761 11.4397 22.1673 11.5069C22.5081 11.522 22.8342 11.6485 23.0941 11.8666C24.3446 12.9509 25.6255 14.0022 26.8005 15.1743C26.9901 15.3625 27.2079 15.5175 27.4059 15.6912C27.5106 15.7821 27.5923 15.8927 27.5483 16.0395C27.497 16.2059 27.3504 16.1863 27.2163 16.1852C24.4609 16.1666 22.0165 18.4159 21.387 20.9163C21.3074 21.2347 21.342 21.5551 21.3253 21.8745C21.3137 22.0812 21.3776 22.3386 21.1713 22.4482C20.944 22.5702 20.7974 22.3293 20.6477 22.2042C19.614 21.3628 18.6725 20.4191 17.6482 19.5653C17.4 19.3586 17.1706 19.1105 16.8931 18.9586C16.2857 18.6278 16.2249 18.0531 16.2354 17.5114C16.2459 17.0204 16.7025 16.7238 17.0418 16.3982C17.0944 16.3746 17.1501 16.3586 17.2073 16.3506C18.3457 16.454 19.4495 16.7558 20.5785 16.9191C20.9618 16.975 21.0603 16.8478 21.0299 16.5171C21.2875 16.332 21.6541 16.271 21.7714 15.9134Z" fill="#68B953"/>
<path d="M20.7204 12.039C20.6641 11.9969 20.6179 11.9432 20.585 11.8816C20.552 11.82 20.5332 11.752 20.5298 11.6824C20.8356 11.2689 21.2053 10.9123 21.5488 10.533C21.8305 10.2229 22.0724 10.2415 22.3751 10.4926C23.7031 11.5739 25.0237 12.6633 26.3025 13.8004C29.4506 16.6057 32.3338 19.6478 34.8128 23.0547C35.0484 23.3782 35.0872 23.6304 34.84 23.9623C32.9549 26.4947 30.9535 28.9238 28.5374 30.986C28.0661 31.3901 27.9635 31.3922 27.5948 30.8826C25.4541 27.9418 22.9815 25.2895 20.3444 22.7828C18.7915 21.299 17.1551 19.9027 15.443 18.6007C15.3429 18.5115 15.238 18.4276 15.1288 18.3495C14.7382 18.1169 14.7948 17.8513 15.0691 17.5701C15.4273 17.2021 15.7719 16.8217 16.106 16.4331C16.1577 16.3644 16.2272 16.3107 16.3071 16.2776C16.3871 16.2445 16.4746 16.2332 16.5605 16.245C16.7637 16.2729 16.8967 16.3545 16.77 16.583C16.7248 16.6878 16.6556 16.7809 16.5678 16.8548C15.9918 17.23 16.2861 17.7975 16.2306 18.2864C16.2159 18.4136 16.3249 18.4932 16.4128 18.5583C18.011 19.8225 19.5149 21.1931 20.9979 22.5896C21.0918 22.6854 21.2068 22.7587 21.3341 22.8035C21.0733 20.8892 21.753 19.3211 23.0862 17.9929C24.4194 16.6646 25.9841 15.9979 27.9603 16.2811C27.2534 15.4604 26.4438 14.8226 25.6898 14.1373C24.8561 13.3817 24.0183 12.6406 23.1543 11.9294C22.4044 11.3092 21.8399 11.2772 21.0702 11.917C20.9686 11.9966 20.8764 12.1041 20.7204 12.039Z" fill="#68B854"/>
<path d="M20.7211 12.0393C21.1547 11.6962 21.5014 11.2682 22.1874 11.3158C22.4604 11.3161 22.725 11.4096 22.9362 11.5804C23.9227 12.4166 24.9198 13.2415 25.8592 14.1273C26.6551 14.8778 27.5453 15.5372 28.3455 16.5047C26.2079 16.0251 24.548 16.7042 23.1572 18.1048C21.7852 19.4869 21.0825 21.1076 21.5674 23.2215C21.205 22.9258 20.939 22.7429 20.718 22.5237C19.3293 21.1696 17.8599 19.9045 16.3508 18.6847C16.1413 18.5183 16.1518 18.325 16.0858 18.1028C15.8554 17.3379 16.3445 16.9172 16.7927 16.4138C16.4932 16.329 16.289 16.329 16.1392 16.5616C16.0986 16.6257 16.0538 16.6872 16.0052 16.7456C15.648 17.1766 14.8898 17.526 15.0019 18.0201C15.1003 18.4573 15.7947 18.7736 16.245 19.1209C18.6936 21.0074 20.9432 23.1129 23.065 25.3425C24.7239 27.0853 26.3116 28.8962 27.6888 30.8767C27.9182 31.2085 28.0962 31.2489 28.446 30.9481C30.8244 28.8993 32.8122 26.5178 34.6827 24.0225C35.0178 23.577 34.8617 23.3124 34.602 22.9517C32.4425 19.9541 29.8965 17.2934 27.207 14.762C25.6309 13.2787 23.9552 11.905 22.2701 10.5426C22.0041 10.3276 21.8732 10.3814 21.6585 10.585C21.2773 10.9478 20.9735 11.3881 20.5295 11.6879L20.5012 11.4677C20.8803 11.0718 21.2678 10.6832 21.6365 10.278C21.8177 10.0795 21.936 10.0175 22.1863 10.2273C23.2158 11.0956 24.2977 11.9039 25.3104 12.7898C26.7976 14.0901 28.2669 15.4122 29.6493 16.821C31.5813 18.8048 33.3723 20.9178 35.0094 23.145C35.199 23.4013 35.2346 23.6091 35.0188 23.8985C33.8993 25.4004 32.7535 26.8806 31.4821 28.2626C30.5801 29.2628 29.6191 30.2095 28.6041 31.0979C27.9999 31.6148 28.0135 31.6334 27.5673 31.0194C25.1659 27.7117 22.3308 24.774 19.3377 21.9914C17.9093 20.6591 16.3994 19.4146 14.8165 18.2651C14.519 18.0501 14.5861 17.9229 14.8018 17.7038C15.2385 17.2614 15.6449 16.789 16.0586 16.3311C15.9298 16.1864 15.7831 16.2567 15.6627 16.2205C15.6889 15.8174 15.9926 15.6437 16.2984 15.4701C16.6482 15.4701 16.999 15.4628 17.3007 15.683C17.4871 16.0303 17.1006 16.2081 17.0535 16.4861C16.8608 16.7197 16.6691 16.9544 16.4744 17.187C16.3497 17.3379 16.3602 18.3447 16.511 18.4604C18.1071 19.6894 19.5314 21.1128 21.1673 22.4917C21.0343 20.6383 21.7203 19.1912 22.9414 17.9498C24.1626 16.7084 25.6372 16.02 27.4448 16.0448C27.4333 15.7347 27.1138 15.683 26.9431 15.5124C25.744 14.3175 24.4432 13.2384 23.1655 12.1262C22.3685 11.4347 21.737 11.445 21.0301 12.2202C21.0152 12.2436 20.9957 12.2637 20.9728 12.2795C20.9499 12.2953 20.924 12.3065 20.8967 12.3122C20.8694 12.318 20.8412 12.3183 20.8137 12.3132C20.7863 12.308 20.7601 12.2975 20.7368 12.2823L20.7211 12.0393Z" fill="#448D41"/>
<path d="M15.7355 2.84979L16.8467 4.35894C16.9105 4.58738 16.7241 4.69591 16.61 4.83959C15.9565 5.65411 15.1825 6.23089 14.0535 6.11719L12.6617 5.21067C12.6485 5.17519 12.6451 5.13693 12.6517 5.09973C12.6583 5.06253 12.6748 5.02771 12.6994 4.99877C13.3131 4.36204 13.8765 3.67362 14.6253 3.17643L15.0725 2.84359C15.2935 2.71542 15.5155 2.68544 15.7355 2.84979Z" fill="#98CF8A"/>
<path d="M17.2806 15.7798C16.9455 15.6248 16.5821 15.6093 16.2218 15.5731C15.9558 15.7126 15.6982 15.5824 15.4322 15.5597C14.9211 15.4563 14.4142 15.3343 13.8958 15.2671C13.8078 15.2806 13.7219 15.3023 13.6329 15.3105C13.2527 15.2909 12.9103 15.1286 12.5563 15.0149C12.4082 14.9792 12.2777 14.8928 12.188 14.7711C12.0983 14.6495 12.0551 14.5004 12.0662 14.3503C12.0621 14.2584 12.067 14.1663 12.0808 14.0753C12.13 13.8913 12.1803 13.7084 12.4348 13.728C12.4798 14.1911 12.8087 14.3017 13.1972 14.2976C13.9785 14.2893 14.7127 14.5136 15.4562 14.7028C15.9474 14.8278 16.4658 14.863 16.9591 14.9281C17.9823 15.0635 18.972 15.3602 20.0015 15.4635C20.5 15.5131 20.9881 15.7095 21.5086 15.6703C21.672 15.6579 21.7442 15.7654 21.7715 15.9101C21.7715 16.3887 21.5913 16.6336 21.0719 16.4641C20.7493 16.5881 20.4361 16.4796 20.1241 16.4186C19.2862 16.2574 18.4431 16.1447 17.6105 15.9514C17.4857 15.9279 17.3709 15.8681 17.2806 15.7798Z" fill="#F0DF7C"/>
<path d="M14.0537 6.11714C14.1584 5.7781 14.4444 5.93108 14.6308 5.94658C15.1272 5.9869 15.5126 5.84322 15.8174 5.45456C16.1221 5.06591 16.5735 4.78786 16.8468 4.35889L19.2839 6.78385C19.4232 6.92236 19.2986 7.01849 19.2253 7.12082C19.1205 7.30481 19.0326 7.18181 18.9393 7.11462L18.6325 7.05984C18.6043 7.08534 18.5713 7.10505 18.5353 7.11783C18.4994 7.13061 18.4612 7.13619 18.423 7.13426C17.1349 6.89962 15.8048 6.89548 14.5658 6.38899C14.3375 6.40346 14.2674 6.12747 14.0537 6.11714Z" fill="#3775A7"/>
<path d="M21.534 9.78433C21.1884 10.1564 20.891 10.5937 20.3265 10.6795C19.8029 10.5968 20.0825 10.0738 19.8573 9.7957C19.7337 9.64478 19.6321 9.32022 19.5986 9.05146C20.006 8.91399 20.2008 8.47778 20.6145 8.34961C21.1298 8.69795 21.2282 9.30574 21.534 9.78433Z" fill="#99CE8B"/>
<path d="M18.4367 7.22108C18.2377 7.67072 17.8 7.91776 17.5099 8.28988C17.3507 8.49661 17.2617 8.34156 17.1454 8.25784C16.5767 7.84437 16.007 7.44021 15.4373 7.03088C15.3263 6.79417 15.4844 6.74456 15.6656 6.71045C16.5453 6.76833 17.403 6.9823 18.2754 7.08567C18.3132 7.08914 18.3489 7.104 18.3778 7.12823C18.4066 7.15246 18.4272 7.18488 18.4367 7.22108Z" fill="#3A75A5"/>
<path d="M12.0293 4.85632L12.5173 3.526C12.736 3.52777 12.9522 3.48125 13.1503 3.38986C13.3484 3.29846 13.5232 3.16451 13.662 2.9978C13.927 2.68771 14.2904 2.5709 14.6685 2.86239L14.5166 3.06913C13.8956 3.78752 13.3122 4.54519 12.4503 5.01447C12.3089 4.96796 12.1005 5.08269 12.0293 4.85632Z" fill="#99CE8D"/>
<path d="M12.4543 13.4232L12.4469 13.4553C12.2877 13.7654 11.8646 13.5338 11.6897 13.8109C11.5976 13.937 11.4572 14.0031 11.3378 14.0951C11.2711 14.1391 11.1963 14.1697 11.1175 14.1849C11.0388 14.2002 10.9577 14.1999 10.8791 14.184C10.753 14.1456 10.6381 14.0779 10.544 13.9866C10.4623 13.9266 10.3764 13.8708 10.2989 13.8057C10.2707 13.781 10.2498 13.7492 10.2384 13.7137C10.2269 13.6782 10.2254 13.6404 10.234 13.6041C10.3298 13.4389 10.3614 13.2449 10.323 13.0584C10.3254 13.0228 10.3383 12.9886 10.36 12.9602C10.3818 12.9317 10.4115 12.9101 10.4455 12.8981C10.5107 12.9131 10.5792 12.9044 10.6384 12.8737C10.6977 12.8429 10.7437 12.7922 10.7681 12.7307C10.8571 12.6273 10.8728 12.4206 11.0938 12.4878C11.408 12.7638 11.7274 13.0284 12.1223 13.1865C12.1913 13.201 12.2564 13.2295 12.3136 13.2702C12.3708 13.311 12.4187 13.3631 12.4543 13.4232Z" fill="#EFF3F4"/>
<path d="M18.9394 7.11459L19.2242 7.12182C19.5772 7.2779 19.5908 7.05773 19.5814 6.81172C19.8065 6.7466 19.9123 6.56054 20.0244 6.38172C20.0226 6.33306 20.0325 6.28469 20.0533 6.24051C20.074 6.19633 20.105 6.1576 20.1438 6.12744H20.1752C20.3564 6.27422 20.3668 6.49129 20.4161 6.69285C20.4422 6.90992 20.7072 6.84894 20.7899 7.00295C20.8297 7.06187 20.8643 7.12389 20.9083 7.18074C21.0214 7.31718 21.3272 7.22829 21.3115 7.51564C21.1355 7.66449 20.8758 7.64795 20.7103 7.81644C20.6386 7.89015 20.5485 7.94408 20.4492 7.97291C20.3498 8.00174 20.2445 8.00445 20.1438 7.98079C19.8516 7.88363 19.6557 8.23197 19.3667 8.14618C19.3558 8.11238 19.3388 8.08085 19.3164 8.05315C19.2651 7.7968 19.5887 7.43295 19.0985 7.30271C19.0158 7.26136 18.8692 7.27791 18.9394 7.11459Z" fill="#F0F5EF"/>
<path d="M10.7017 4.07897C10.6158 3.77661 10.5833 3.46194 10.6053 3.14868C11.0023 2.81584 11.3573 3.16212 11.7155 3.24481C11.9176 3.29133 11.7417 3.46291 11.6642 3.54664C11.4358 3.79679 11.1939 4.03453 10.9562 4.27744C10.7928 4.30845 10.8127 4.11205 10.7017 4.07897Z" fill="#A7D2A5"/>
<path d="M18.4369 7.22126L15.6637 6.80262C15.4437 6.70546 15.1725 6.88945 14.9745 6.67755C14.8855 6.51527 14.5483 6.69822 14.5651 6.38916L18.6328 7.06001C18.6369 7.19645 18.5804 7.2595 18.4369 7.22126Z" fill="#CBDFEC"/>
<path d="M20.5997 8.35701C20.2803 8.60819 20.1599 9.13845 19.5996 9.05163C19.5828 8.92138 19.5671 8.79114 19.5503 8.65987C19.3493 8.17715 19.6111 7.98489 20.0405 7.896C20.3285 7.92907 20.5704 8.01693 20.5997 8.35701Z" fill="#3A77A4"/>
<path d="M12.4542 13.4229C12.3249 13.4237 12.2 13.3773 12.1033 13.2927C11.7483 13.0963 11.7839 12.8937 12.0897 12.6797C12.2635 12.543 12.4638 12.4427 12.6783 12.3851C12.9464 12.3634 13.0616 12.6105 13.2606 12.7097C13.1318 13.1015 12.7547 13.2203 12.4542 13.4229Z" fill="#202E54"/>
<path d="M12.4499 5.01859C13.1376 4.36945 13.8264 3.721 14.5162 3.07324L14.6209 3.17661L12.6614 5.21085C12.5158 5.22739 12.4415 5.1664 12.4499 5.01859Z" fill="#DFECD6"/>
<path d="M11.6237 13.7548C11.5473 13.5326 11.7285 13.5646 11.8437 13.5481C12.0447 13.5192 12.2626 13.5853 12.4469 13.4551L12.4343 13.7311C12.2804 13.8065 12.25 13.9605 12.1955 14.099C11.9086 14.1414 11.7494 13.975 11.6237 13.7548Z" fill="#4F7796"/>
<path d="M19.0967 7.30273C19.7251 7.4061 19.7251 7.4061 19.3156 8.05317C19.0003 7.87125 19.1522 7.55701 19.0967 7.30273Z" fill="#B0D18D"/>
<path d="M20.1436 7.93342C19.6839 7.96753 19.5603 8.26832 19.5488 8.65698C19.2754 8.56085 19.3393 8.34688 19.3613 8.14015C19.6116 8.03678 19.7802 7.72669 20.1227 7.84969C20.1702 7.85589 20.189 7.86933 20.1792 7.89001C20.1698 7.92102 20.1583 7.93342 20.1436 7.93342Z" fill="#6B8D8F"/>
<path d="M11.4971 4.53032C11.5979 4.3226 11.7696 4.15649 11.982 4.06104C11.9767 4.29154 11.9704 4.52308 11.9652 4.75358C11.7568 4.78666 11.6919 4.52618 11.4971 4.53032Z" fill="#9ACB9E"/>
<path d="M14.9746 6.67773C15.204 6.72322 15.4553 6.64776 15.6637 6.80281C15.5265 6.82038 15.4281 6.87413 15.4375 7.03124C15.1914 7.03124 15.117 6.81418 14.9746 6.67773Z" fill="#738D98"/>
<path d="M10.8582 14.0939C11.0121 14.0835 11.1797 14.1311 11.3043 13.9905C11.7379 13.7838 11.9683 14.0587 12.1935 14.3502C12.1526 14.6272 12.2416 14.7999 12.5443 14.8733C12.9423 14.9694 13.3298 15.1048 13.7215 15.2226C13.7307 15.248 13.734 15.2752 13.7311 15.3021C13.7282 15.3289 13.7192 15.3548 13.7047 15.3777C13.5256 15.5751 13.2774 15.6878 13.0763 15.8573C12.9936 15.9297 12.8574 15.9834 12.8763 16.1074C12.9014 16.2708 13.0721 16.2573 13.1905 16.2894C13.6303 16.4051 14.0912 16.4103 14.531 16.5199C14.7028 16.5623 14.9688 16.5126 14.9709 16.8165C14.7551 17.2693 14.2713 17.506 14.0388 17.9453C13.8618 18.2481 13.8943 18.5551 14.0241 18.8621L14.2943 19.102C14.2776 19.4482 14.2556 19.7883 14.596 20.0322C14.7007 20.1036 14.6556 20.239 14.5363 20.3093C13.9393 20.4736 13.3455 20.6566 12.715 20.4995C12.5949 20.408 12.4995 20.2887 12.4375 20.1521C12.1484 19.6736 11.7902 19.3366 11.1587 19.4286C11.0358 19.4541 10.908 19.4442 10.7907 19.4C10.6733 19.3559 10.5713 19.2793 10.4968 19.1795C10.1994 18.7422 9.77734 18.4125 9.47467 17.9815C9.42991 17.898 9.40418 17.806 9.39929 17.7117C9.39441 17.6174 9.41048 17.5232 9.44639 17.4357C9.75535 16.4672 10.0915 15.509 10.4759 14.5673C10.5586 14.3823 10.6529 14.1921 10.8582 14.0939Z" fill="#3774A7"/>
<path d="M28.5224 14.9902C28.0459 14.8093 27.7401 14.4104 27.3704 14.0951C26.5922 13.4304 25.8434 12.7338 25.082 12.0505C25.1972 11.7466 25.4947 11.6122 25.7104 11.3993C26.5692 10.5372 27.4542 9.70204 28.1778 8.71179C28.625 8.104 28.9759 8.14638 29.3142 8.81516C30.1279 10.441 30.7263 12.1635 31.0946 13.94C31.1268 14.0493 31.1304 14.1649 31.105 14.276C30.8956 14.4693 30.7605 14.276 30.6264 14.1643C30.4536 14.0186 30.2808 13.8729 30.1174 13.7168C30.0776 13.6837 30.0399 13.6485 30.0012 13.6134C29.6304 13.4987 29.2681 13.4646 28.9005 13.6423C28.8691 13.6858 28.8376 13.7281 28.8094 13.7736C28.5632 14.1478 28.8575 14.6419 28.5224 14.9902Z" fill="#99CF8A"/>
<path d="M20.644 7.7423C20.7676 7.4167 21.0629 7.53557 21.2975 7.49836C21.707 7.34331 22.1353 7.42497 22.5333 7.48596C23.6141 7.65341 24.7096 7.48596 25.7872 7.67925C26.5403 7.81259 27.3079 7.79295 28.0714 7.81672C28.5563 7.8312 28.6872 8.07307 28.4285 8.42348C27.5478 9.63414 26.5244 10.7372 25.3798 11.7095C25.3137 11.7779 25.2271 11.8236 25.1327 11.8397C24.8908 11.2784 24.5808 10.7823 23.922 10.6252C23.7042 10.5725 23.456 10.6252 23.2758 10.4464C22.8286 10.343 22.5731 9.96777 22.2285 9.72279C22.0411 9.58945 21.8882 9.42096 21.6305 9.53983C21.4682 9.57911 21.3896 9.47471 21.3163 9.36101C21.0451 8.95375 20.8691 8.49584 20.6042 8.08444C20.5413 7.98935 20.4806 7.8374 20.644 7.7423Z" fill="#99CF8A"/>
<path d="M30.1674 13.6206L31.0178 14.3079C31.1435 14.3503 31.1383 14.4351 31.0943 14.5333C31.1739 15.2775 31.3289 16.0145 31.3121 16.768C31.3121 16.951 31.3802 17.1815 31.1822 17.2849C30.9843 17.3882 30.8974 17.1546 30.7633 17.0781C30.5539 16.9562 30.3444 16.8166 30.1412 16.6833C29.5966 16.1261 28.9525 15.6631 28.5273 14.9953C28.6132 14.7379 28.542 14.4785 28.5399 14.218C28.5399 13.9916 28.5137 13.7632 28.7609 13.6299C29.2123 13.4548 29.7136 13.4515 30.1674 13.6206Z" fill="#3775A8"/>
<path d="M31.0942 14.5331L31.0188 14.3078C30.6756 12.5006 30.091 10.7463 29.2803 9.09089C28.8331 8.1823 28.7493 8.17816 28.1545 8.96891C27.3313 10.0625 26.3489 11.0073 25.3268 11.9138C25.2513 11.9671 25.1706 12.0128 25.0859 12.0503L24.9466 11.9893C24.9183 11.8549 24.9466 11.7608 25.1131 11.7774C26.3186 10.8398 27.2925 9.68317 28.2466 8.511C28.344 8.3911 28.5304 8.24845 28.4561 8.07687C28.3817 7.90528 28.1513 7.9673 27.9869 7.95696C25.9468 7.83602 23.9024 7.72129 21.8675 7.59828C21.6781 7.57548 21.4902 7.54095 21.3051 7.49492C21.1742 7.27785 20.8559 7.49492 20.7344 7.25511C21.3711 6.95018 22.0058 7.26234 22.6415 7.27371C24.2418 7.30059 25.8368 7.46908 27.435 7.55074C28.1283 7.58691 28.1566 7.47528 27.8727 6.84268C27.6633 6.36926 27.1742 6.03229 27.1784 5.45654L27.3962 5.46378C27.789 5.91756 28.0738 6.43645 28.365 6.95638C28.5085 7.21273 28.6258 7.64687 29.1065 7.36985L29.2426 7.50112C28.9661 7.7678 29.0771 7.9735 29.3201 8.19884C29.8563 8.69603 30.4659 9.11983 30.8837 9.73382C30.8596 9.7545 30.8366 9.77723 30.8136 9.79997C30.1852 9.78033 30.0302 9.14257 29.6134 8.94204C30.4512 10.5328 30.9612 12.3128 31.3938 14.1186C31.4294 14.2674 31.444 14.4204 31.2974 14.5321L31.0942 14.5331Z" fill="#E6F0E0"/>
<path d="M14.9759 16.8186C14.3475 16.5302 13.6396 16.5953 12.9861 16.3969C12.8352 16.3504 12.6059 16.4041 12.5671 16.1788C12.5284 15.9534 12.741 15.911 12.8813 15.8211C13.1473 15.6454 13.3631 15.388 13.7014 15.3291C14.3297 15.4883 14.7864 15.9317 15.2922 16.2914C15.3123 16.3045 15.3291 16.3219 15.3414 16.3424C15.3537 16.3628 15.3612 16.3857 15.3632 16.4094C15.3652 16.4331 15.3617 16.4569 15.3531 16.4791C15.3444 16.5013 15.3308 16.5212 15.3132 16.5374C15.2126 16.6439 15.1571 16.8052 14.9759 16.8186Z" fill="#0E2A48"/>
<path d="M25.1113 11.7773L24.9447 11.9892C24.4805 11.5118 23.9737 11.0765 23.4303 10.6889C23.3256 10.6165 23.2471 10.5752 23.2785 10.4418C23.733 10.4129 24.1498 10.4625 24.5551 10.7333C24.9604 11.0042 25.1888 11.2936 25.1113 11.7773Z" fill="#3977A4"/>
<path d="M26.9358 30.8722C26.8122 31.0127 26.6939 31.1575 26.5661 31.2939C26.475 31.39 26.3441 31.4252 26.2907 31.2846C25.834 30.0918 25.0601 29.0643 24.5176 27.918C24.9648 28.256 25.2057 28.7552 25.5324 29.1873C25.8258 29.526 26.0578 29.912 26.2184 30.3285C26.3524 30.6861 26.565 30.8598 26.9368 30.867L26.9358 30.8722Z" fill="#357338"/>
<path d="M26.9335 30.8713C26.5387 31.0853 26.3156 31.0346 26.1711 30.5468C26.0265 30.0589 25.7522 29.6382 25.5322 29.1875C26.1239 29.6475 26.4947 30.2873 26.9335 30.8713Z" fill="#519D45"/>
<path d="M20.6447 7.74219C20.8587 8.39583 21.1932 9.00487 21.6312 9.53869C21.5998 9.62138 21.5673 9.70304 21.5349 9.7847C21.0112 9.44566 20.9746 8.79342 20.5996 8.35825C20.4583 8.20837 20.3713 8.00164 20.1441 7.93341C20.139 7.90701 20.1316 7.88107 20.1221 7.85589C20.2124 7.87461 20.3057 7.87415 20.3958 7.85455C20.4859 7.83495 20.5707 7.79664 20.6447 7.74219Z" fill="#DAE9D6"/>
<path d="M15.418 15.4327C15.6925 15.4305 15.965 15.4792 16.2213 15.5764L15.6652 16.2193C15.5866 16.2679 15.5091 16.3175 15.4316 16.3671C15.385 16.3181 15.3475 16.2614 15.3206 16.1997C15.2672 15.934 15.2211 15.6684 15.418 15.4327Z" fill="#264B3B"/>
<path d="M15.4186 16.2379C15.4186 16.2813 15.428 16.3237 15.4322 16.3671C15.4144 16.4384 15.4228 16.5273 15.3139 16.5377C14.8949 15.9795 14.1901 15.7965 13.7031 15.3293C13.7125 15.2955 13.7188 15.2609 13.722 15.226L13.8267 15.1484C14.41 15.4317 14.9944 15.72 15.4186 16.2379Z" fill="#294B68"/>
<path d="M14.0293 18.8641C13.6743 18.554 13.7057 18.2439 14.044 17.9473C14.0513 18.0589 14.0586 18.1705 14.067 18.2822L14.0293 18.8641Z" fill="#408376"/>
<path d="M20.2638 6.80658C20.2345 6.5802 20.2041 6.3528 20.1748 6.12539C20.445 5.84734 20.6985 5.55378 20.9896 5.29847C21.2472 5.069 21.5677 5.04419 21.8966 5.14962C21.8777 5.24678 21.8599 5.34498 21.8411 5.44214C21.6504 5.94657 21.265 6.31352 20.9132 6.70011C20.7403 6.8872 20.5194 6.99677 20.2638 6.80658Z" fill="#97CB8D"/>
<path d="M3.35985 7.27795C2.75975 8.31161 2.18164 9.3556 1.7889 10.4885C1.71664 10.6952 1.68417 10.9206 1.62448 11.1366C1.10607 10.2197 0.505966 9.33803 0.472452 8.22788C0.455695 7.71105 0.712282 7.40819 1.17519 7.26451C1.88808 7.05122 2.6497 7.05591 3.35985 7.27795Z" fill="#DBB03D"/>
<path d="M9.24548 9.99121C9.82778 10.3303 10.4394 10.629 10.9075 11.1282C11.0364 11.5014 11.0123 11.8797 10.9379 12.258C10.7159 12.5898 10.5022 12.3324 10.3095 12.2322C9.70419 11.9221 9.15751 11.4942 8.51865 11.2461C8.3092 11.1427 8.11544 11.0135 8.04004 10.7737C8.41392 10.4688 8.83808 10.2455 9.24548 9.99121Z" fill="#1A2953"/>
<path d="M9.24513 9.9911C8.93828 10.4046 8.56753 10.7147 8.0177 10.7281C7.9224 10.8232 7.85537 10.7384 7.78206 10.693C7.69371 10.6156 7.59836 10.5464 7.49719 10.4862C7.23328 10.1947 7.06361 9.83915 6.8175 9.53525C6.63108 9.23239 6.43 8.92953 6.82588 8.63184C7.69304 8.97811 8.47328 9.47633 9.24513 9.9911Z" fill="#438140"/>
<path d="M12.6783 12.385C12.5736 12.5917 12.3495 12.6951 12.162 12.7861C11.8237 12.9483 11.9819 13.1096 12.1033 13.2925C11.9986 13.1799 11.5137 13.6337 11.7316 13.0403C11.7808 12.906 11.6268 12.9452 11.5451 12.937C11.2833 12.908 11.0896 12.7964 11.0456 12.5142C10.9335 12.0656 10.8078 11.617 11.1315 11.1963C11.6603 11.5705 12.2573 11.8692 12.6783 12.385Z" fill="#273B60"/>
<path d="M4.61769 9.52813L4.4009 9.57258C3.91809 9.61393 3.73691 9.49092 4.02073 9.002C4.26056 8.58854 4.43336 8.13786 4.63654 7.70373C4.94549 7.65825 5.18847 7.81743 5.43982 7.95284C5.58958 8.41178 5.32776 8.7932 5.20103 9.2015C5.08478 9.44854 4.85333 9.49299 4.61769 9.52813Z" fill="#224527"/>
<path d="M5.10645 9.22762L5.43948 7.95312C5.61662 7.9767 5.78048 8.05866 5.90448 8.1857C6.11394 8.3976 6.48573 8.56299 6.14536 8.94647C5.80918 9.07568 5.51803 9.36924 5.10645 9.22762Z" fill="#438141"/>
<path d="M6.11653 8.85226C6.27258 8.55973 5.89136 8.43362 5.90707 8.18555C6.24919 8.2492 6.56758 8.40275 6.82869 8.63002C6.58153 8.9856 6.8444 9.26158 6.97531 9.56031C6.71558 9.70709 6.50298 9.428 6.25372 9.48382C6.07359 9.46935 6.0139 9.31533 5.91859 9.20163C5.88845 9.16144 5.86576 9.11629 5.85156 9.06829C5.85156 8.8905 6.0495 8.95046 6.11653 8.85226Z" fill="#70ADB0"/>
<path d="M11.1367 11.1959C10.9806 11.6269 11.1084 12.0755 11.0508 12.5138C10.8623 12.5521 10.9817 12.7691 10.855 12.8436C10.819 12.8148 10.7896 12.7789 10.7688 12.7382C10.7479 12.6975 10.7359 12.6529 10.7338 12.6073C10.7316 12.5617 10.7392 12.5162 10.7561 12.4737C10.773 12.4312 10.7989 12.3928 10.8319 12.3608C10.8874 11.9525 10.7659 11.5339 10.9126 11.1308C10.9515 11.1127 10.9959 11.1093 11.0372 11.1213C11.0785 11.1333 11.1139 11.1599 11.1367 11.1959Z" fill="#6595AA"/>
<path d="M19.6741 24.197C19.2667 24.5598 19.339 25.089 19.2217 25.5407C18.8646 26.931 18.9264 26.9796 17.6141 26.2198C15.7709 25.1521 13.9088 24.1174 12.0561 23.0641C11.8974 22.9626 11.7439 22.8532 11.5964 22.7364C11.4215 22.3343 11.4969 21.9911 11.9577 21.9095C12.4457 21.8216 12.5965 21.5808 12.5326 21.1311C12.5196 20.9978 12.5528 20.8641 12.6269 20.7518C12.8667 20.4128 13.2657 20.5626 13.5831 20.4799C13.9334 20.3931 14.2909 20.3377 14.6513 20.3146C14.7402 20.2975 14.8316 20.2975 14.9205 20.3146C15.7175 20.728 16.3479 21.3668 17.0538 21.9043C17.9566 22.5927 18.7536 23.4093 19.7003 24.0461C19.7108 24.0711 19.7139 24.0985 19.7093 24.1253C19.7047 24.152 19.6925 24.1768 19.6741 24.197Z" fill="#3774A7"/>
<path d="M10.6846 25.6584C10.5086 25.3827 10.3324 25.1071 10.1557 24.8314C10.1391 24.8113 10.1292 24.7866 10.1273 24.7607C10.1254 24.7348 10.1317 24.709 10.1452 24.6867C10.6417 24.1554 11.1611 23.6448 11.689 23.1362L18.6598 27.03C17.712 27.4245 16.7869 27.87 15.8886 28.3645C14.4769 28.0937 13.2421 27.4187 12.0189 26.7106C11.5189 26.434 11.0682 26.0786 10.6846 25.6584Z" fill="#3774A7"/>
<path d="M10.6846 25.6587C12.2293 26.7626 13.8778 27.6681 15.7043 28.2366C15.7715 28.2694 15.8335 28.3115 15.8886 28.3617C15.3974 28.7162 14.8486 29.0108 14.5083 29.5328C14.3292 29.8068 14.2003 29.6228 14.06 29.5204C12.6587 28.4961 11.5057 27.177 10.6846 25.6587Z" fill="#23527E"/>
<path d="M21.758 28.9257C21.1859 28.264 20.4972 27.71 19.7252 27.2904C19.6205 27.2315 19.4393 27.2098 19.4728 27.033C19.4969 26.9049 19.653 26.9121 19.7472 26.8552C20.2761 26.5451 20.9631 26.5224 21.3873 26.0097C21.4093 25.9881 21.4381 25.9746 21.469 25.9714C21.4998 25.9682 21.5309 25.9755 21.5569 25.9921C21.9533 26.6105 22.2929 27.2626 22.5718 27.9406C22.6849 28.2279 22.9498 28.537 22.6765 28.8264C22.4346 29.0879 22.0764 28.9908 21.758 28.9257Z" fill="#3775A7"/>
<path d="M10.0292 24.9773C10.8005 26.4338 11.7695 27.7796 12.9093 28.9776C11.4358 28.1693 9.9067 27.455 8.97461 25.98C9.14532 25.5241 9.52234 25.2461 9.87947 24.9463L9.95907 24.937L10.0292 24.9773Z" fill="#24527E"/>
<path d="M11.6886 23.1454C11.3294 23.8142 10.7146 24.2452 10.1679 24.7403C10.1313 24.7279 10.0862 24.7196 10.0632 24.6907C9.48194 23.8162 9.01484 22.8859 8.88184 21.8213C8.89725 21.7645 8.92474 21.7117 8.96248 21.6662C9.18031 21.5391 9.36987 21.6559 9.55106 21.7499C10.2046 22.09 10.8497 22.4456 11.4111 22.9283L11.6886 23.1454Z" fill="#98CE8B"/>
<path d="M12.7082 20.8066C12.697 20.9371 12.6994 21.0684 12.7156 21.1984C12.8444 21.7803 12.593 22.0253 12.0128 22.0253C11.4724 22.0253 11.7363 22.4997 11.5991 22.7385L11.2996 22.6837C10.555 22.3312 9.78418 22.0222 9.19141 21.4206C9.23016 21.2521 9.36526 21.1849 9.5056 21.1229C10.5215 20.9461 11.5269 20.697 12.5668 20.6836C12.5975 20.6938 12.6258 20.71 12.6501 20.7311C12.6743 20.7522 12.6941 20.7779 12.7082 20.8066Z" fill="#97CC8B"/>
<path d="M18.8873 29.8923L18.8821 29.9078C19.0978 29.578 18.9355 29.1677 19.1156 28.8297C19.8906 28.7573 20.6656 28.6736 21.427 28.9206C21.5317 29.0519 21.6459 29.176 21.7412 29.3145C21.8459 29.4788 21.8072 29.5739 21.5977 29.6246C20.7923 29.8313 19.9901 30.0494 19.1889 30.2727C18.7417 30.3977 18.9135 30.0732 18.8873 29.8923Z" fill="#26537F"/>
<path d="M21.7571 28.9258C21.7708 28.9134 21.7844 28.8938 21.8001 28.8907C22.6976 28.7036 22.6651 28.7139 22.3625 27.8188C22.1457 27.1779 21.6137 26.6921 21.5068 26.0078C21.5812 25.8548 21.6786 25.7669 21.8524 25.8827C22.5374 26.6218 23.1877 27.3846 23.4988 28.3635C23.4496 28.777 23.1008 28.8865 22.7866 29.0292C22.7175 29.06 22.6516 29.0974 22.5897 29.1408C22.2054 29.4612 21.9237 29.4302 21.7571 28.9258Z" fill="#23537F"/>
<path d="M21.1914 25.9872C20.674 26.2174 20.1563 26.4479 19.6382 26.6787C19.3021 26.8276 19.1523 26.7066 19.2319 26.3686C19.3754 25.7484 19.5461 25.1396 19.7074 24.5246C19.7516 24.4867 19.8091 24.4671 19.8676 24.47C19.9262 24.4729 19.9813 24.498 20.0215 24.5401C20.445 24.8788 20.8317 25.2598 21.1757 25.6771C21.2159 25.7181 21.2397 25.7722 21.2426 25.8292C21.2455 25.8863 21.2273 25.9424 21.1914 25.9872Z" fill="#3875A7"/>
<path d="M18.7887 29.2948C18.7887 28.994 18.7028 28.8276 18.3394 28.809C17.8881 28.7726 17.4404 28.7 17.001 28.5919C16.8093 28.5516 16.5821 28.5485 16.4658 28.3314C17.0418 27.9232 17.709 27.6978 18.351 27.4146C18.6138 27.2978 18.8746 27.3205 18.8746 27.6792C18.8683 28.2157 18.9542 28.7614 18.7887 29.2948Z" fill="#3875A7"/>
<path d="M21.4241 28.9206C20.6533 28.9206 19.8752 29.0571 19.1127 28.8297C19.1075 28.4513 19.1065 28.0741 19.097 27.6926C19.0876 27.3112 19.2677 27.2637 19.561 27.4384C20.248 27.8477 20.9392 28.2612 21.4241 28.9206Z" fill="#3775A6"/>
<path d="M21.1908 25.987C20.8054 25.3895 20.3383 24.8748 19.7068 24.5202C19.6963 24.4169 19.6848 24.3135 19.6733 24.2019C19.6733 24.1595 19.6796 24.1161 19.6838 24.0726C19.5528 23.8928 19.6419 23.7687 19.7885 23.6592C20.3593 23.93 20.7489 24.4231 21.1008 24.8934C21.3469 25.2231 21.7427 25.4557 21.8485 25.8877L21.505 26.0077H21.3835L21.1908 25.987Z" fill="#25547D"/>
<path d="M9.8956 24.9838L8.97398 25.9771C8.81479 25.9286 8.78651 25.789 8.74985 25.6567C8.35607 25.0996 8.33093 24.4794 8.43566 23.8385C8.50688 23.6783 8.63884 23.6535 8.75614 23.7548C9.1782 24.1269 9.65786 24.4442 9.8956 24.9838Z" fill="#509669"/>
<path d="M8.53488 23.7253C8.47728 24.3827 8.61972 25.0194 8.75063 25.6561C8.62809 25.6499 8.49614 25.6716 8.4113 25.5528L8.42911 25.5259C8.09816 24.8023 8.13377 24.0271 8.13796 23.2591C8.19765 22.7423 7.99762 22.2058 8.30972 21.72C8.5862 21.5587 8.74225 21.6765 8.83337 21.9401C8.83728 22.0037 8.82948 22.0674 8.81032 22.1283C8.66789 22.4218 8.69617 22.7371 8.6857 23.0482C8.67941 23.2808 8.72863 23.5299 8.53488 23.7253Z" fill="#DDEAE2"/>
<path d="M8.98389 21.7949C9.17659 22.8565 9.70757 23.7847 10.1684 24.7408C10.1684 24.7729 10.1642 24.8049 10.1558 24.8359L10.0291 24.9775L9.9851 24.9538C9.2972 24.1166 8.87139 23.0997 8.75977 22.0275L8.77862 21.9934C8.85402 21.9344 8.79747 21.7432 8.98389 21.7949Z" fill="#DEECDA"/>
<path d="M9.22025 21.4575C9.90937 21.871 10.6697 22.1666 11.297 22.6834L11.4101 22.9284C10.8153 22.7269 10.345 22.3082 9.78998 22.0302C9.54072 21.9072 9.32079 21.7025 9.01393 21.7201C8.91968 21.503 9.07677 21.4865 9.22025 21.4575Z" fill="#E0EDD9"/>
<path d="M23.684 28.5137L23.9113 28.9271C23.6275 29.2021 23.2746 29.292 22.8902 29.2941L22.8242 29.1907C23.0347 28.8734 23.3007 28.6212 23.684 28.5137Z" fill="#1F4665"/>
<path d="M22.8896 29.2947L23.9118 28.9277C23.9202 29.0022 23.9296 29.0755 23.939 29.15L22.8917 29.4921C22.8896 29.4291 22.8896 29.3639 22.8896 29.2947Z" fill="#6C9CB0"/>
<path d="M23.6836 28.5136L22.8238 29.1937C22.8112 29.139 22.7997 29.0904 22.7871 29.0315L23.4951 28.3647C23.5925 28.3782 23.6941 28.3772 23.6836 28.5136Z" fill="#669AB4"/>
<path d="M19.7932 23.6544C19.7566 23.7919 19.721 23.9304 19.6885 24.0679C19.2172 24.0999 18.991 23.7009 18.7114 23.4601C17.4975 22.413 16.2429 21.4165 14.9746 20.4356C15.1118 20.0335 15.426 20.2051 15.692 20.2196C16.0889 20.356 16.3769 20.6578 16.688 20.909C17.6829 21.7142 18.6454 22.5629 19.6288 23.3794C19.7177 23.4465 19.7767 23.5451 19.7932 23.6544Z" fill="#24537E"/>
<path d="M14.6331 20.1895C14.5807 20.1357 14.5378 20.0582 14.4739 20.0323C13.9125 19.8111 14.0717 19.4649 14.3 19.1021C14.787 19.3088 15.0939 19.7512 15.5285 20.0323C15.3976 20.3424 15.0541 20.1357 14.8593 20.2939C14.8155 20.2986 14.7712 20.2914 14.7313 20.273C14.6914 20.2546 14.6574 20.2257 14.6331 20.1895Z" fill="#24537F"/>
<path d="M24.0544 28.042C24.4217 28.545 24.7243 29.0912 24.955 29.6679C25.0755 29.9708 25.2692 30.2457 25.4242 30.5331C25.2148 30.5807 25.0577 30.6944 24.9383 30.3264C24.711 29.6369 24.3623 28.9826 24.0533 28.3231C24.0051 28.2198 23.914 28.1371 24.0544 28.042Z" fill="#2F6532"/>
<path d="M14.8426 20.2163C15.0416 20.0499 15.3118 20.1336 15.5286 20.0282C15.6752 20.0158 15.649 20.1429 15.6877 20.2184C15.4909 20.4251 15.1641 20.2277 14.9714 20.4354L14.7368 20.4272C14.6792 20.3114 14.7808 20.2732 14.8426 20.2163Z" fill="#56879D"/>
<path d="M19.5342 6.69891C18.689 5.87199 17.7601 5.12775 17.116 4.12097C17.3014 3.74472 17.183 3.48734 16.8018 3.33952C16.5337 3.23616 16.3452 3.01909 16.1095 2.87024C15.6791 2.56014 15.7262 2.27176 16.1409 1.9875C16.8741 1.48307 17.6072 0.974514 18.3937 0.437012C18.9571 2.44024 19.5876 4.35664 19.9395 6.34644C19.9049 6.57487 19.7834 6.70718 19.5342 6.69891Z" fill="#3775A7"/>
<path d="M14.6687 2.86231C14.1964 2.75894 13.8309 2.86231 13.5649 3.31195C13.3198 3.71301 12.9145 3.6789 12.5176 3.52488C12.9417 2.41784 13.6528 1.54026 14.7232 0.829102C14.7081 1.25569 14.8342 1.67552 15.0824 2.02505C15.3935 2.49743 14.8572 2.60596 14.6687 2.86231Z" fill="#3875A7"/>
<path d="M16.1064 2.87061C16.6029 2.95847 16.9925 3.25513 17.3496 3.56522C17.7067 3.87532 17.226 3.94458 17.116 4.12133C16.7016 3.77198 16.3588 3.3474 16.1064 2.87061Z" fill="#96CA90"/>
<path d="M19.5342 6.6991L19.9342 6.34766C19.9611 6.36507 19.9909 6.37767 20.0222 6.38487C20.0222 6.67946 20.1269 7.07018 19.5792 6.81487L19.5342 6.6991Z" fill="#9AC99B"/>
<path d="M15.7352 2.84971H15.0723C15.2943 2.54374 15.5153 2.48482 15.7352 2.84971Z" fill="#528188"/>
<path d="M23.9286 1.95375C23.6831 1.84643 23.4803 1.66224 23.3516 1.42969L24.0794 1.80594L23.9286 1.95375Z" fill="#6A88A3"/>
<path d="M3.03223 17.9248C3.12356 17.7087 3.27772 17.5242 3.47523 17.3945C3.83341 17.2715 4.0879 17.5878 4.4178 17.6095C4.46594 17.6279 4.50875 17.6577 4.54243 17.6964C5.22003 20.4573 6.18145 23.0941 8.09172 25.486C7.3498 25.0547 6.64876 24.5582 5.99713 24.0027C6.02121 23.6461 6.03273 23.2895 6.07358 22.936C6.09976 22.7044 5.95523 22.6052 5.80652 22.4843C5.485 22.2258 5.19071 21.9302 4.85138 21.6987C4.30155 21.3224 4.18425 20.786 4.18216 20.1875C4.17066 20.0564 4.17066 19.9247 4.18216 19.7936C4.34344 18.8437 3.94966 18.2349 3.03223 17.9248Z" fill="#46B093"/>
<path d="M4.53124 13.8509C4.48606 12.4414 4.63724 11.0325 4.98053 9.66357C5.31671 9.49612 5.57958 9.62326 5.81837 9.86514C5.99327 10.4399 5.55864 10.8657 5.40573 11.3526C5.17428 12.0885 4.9334 12.8183 4.7606 13.5708C4.72708 13.6959 4.71347 13.8406 4.53124 13.8509Z" fill="#97CD8C"/>
<path d="M4.53123 13.8508C4.79306 12.4822 5.33765 11.2015 5.77647 9.88772L5.83931 9.835C5.87839 9.822 5.92069 9.82193 5.95981 9.8348C5.99894 9.84767 6.03274 9.87278 6.0561 9.90632C6.07955 9.95498 6.09341 10.0076 6.09694 10.0614C6.03829 10.5338 5.72306 10.9358 5.71154 11.4217C5.34289 12.1049 5.146 12.8409 5.01718 13.5986C5.02556 13.8601 5.17846 14.1598 4.82657 14.3304C4.77603 14.3501 4.72136 14.3572 4.66738 14.3511C4.54066 14.3118 4.59826 14.1609 4.51029 14.0978L4.47363 14.0906C4.49353 14.011 4.51238 13.9304 4.53123 13.8508Z" fill="#D7E7DC"/>
<path d="M5.77736 9.88829L4.98141 9.66399L4.86621 9.64848C5.05472 9.1885 5.54277 9.27223 5.88942 9.09961C5.91766 9.10167 5.94601 9.10167 5.97425 9.09961C6.16172 9.41798 6.10097 9.67742 5.7826 9.87382L5.77736 9.88829Z" fill="#448547"/>
<path d="M5.88889 9.09909C5.61869 9.40919 5.15578 9.36784 4.86463 9.64797C4.83935 9.68958 4.80156 9.72239 4.75651 9.74184C4.71147 9.76129 4.66141 9.76642 4.61328 9.7565C4.63946 9.68104 4.76409 9.60662 4.61328 9.52806L5.10237 9.22727L6.11196 8.85205L5.88889 9.09909Z" fill="#629F8F"/>
<path d="M4.51052 14.1001C4.61525 14.1435 4.61525 14.2448 4.63201 14.3316C4.8111 14.5384 4.73674 14.7627 4.68437 14.9859C4.6341 15.2754 4.62677 15.5565 4.82995 15.8025C4.8775 15.8676 4.90512 15.9447 4.90954 16.0248C4.8865 16.2563 4.88336 16.4899 4.84461 16.7194C4.78701 16.8848 4.8289 17.0574 4.80795 17.2259C4.7974 17.2745 4.77703 17.3205 4.74806 17.3612C4.71909 17.4018 4.68211 17.4363 4.63934 17.4626C4.60582 17.5422 4.57126 17.6218 4.53461 17.7014H4.49481C4.23089 17.4554 4.34086 16.9861 3.95022 16.8176L3.76066 16.7876C3.83398 16.6264 3.86711 16.4502 3.85727 16.2738C3.84743 16.0974 3.79491 15.9259 3.7041 15.7736L3.82454 15.6702C4.15863 15.908 4.24346 15.6847 4.29478 15.418C4.37437 14.9735 4.43931 14.5353 4.51052 14.1001Z" fill="#E8EEF2"/>
<path d="M22.3096 5.00381C23.1066 3.51741 23.1903 3.12979 23.0196 1.56689C24.5906 2.71632 25.9866 3.92364 27.0978 5.43381C26.8046 6.16254 26.3438 6.64216 25.4651 6.52742C25.2755 6.50571 25.0839 6.50571 24.8943 6.52742C24.0942 6.60598 23.4071 6.46023 23.049 5.64674C22.9023 5.31391 22.4133 5.37283 22.3096 5.00381Z" fill="#3775A7"/>
<path d="M22.3092 5.00391C22.8235 5.10727 23.1722 5.41013 23.4026 5.86804C23.6016 6.26187 23.9263 6.43449 24.3745 6.35593C24.4888 6.33991 24.6048 6.33991 24.7191 6.35593C25.6784 6.4593 26.5602 6.38384 27.0975 5.43391C27.1202 5.44684 27.1445 5.45691 27.1697 5.46389C27.5332 6.03447 27.9374 6.5792 28.217 7.20147C28.3982 7.59942 28.3281 7.76067 27.8672 7.72966C25.7339 7.58909 23.5995 7.45574 21.4662 7.3162C21.219 7.30069 20.9708 7.27899 20.7236 7.26038V7.04745C21.0749 6.46565 21.5017 5.93156 21.993 5.45872L22.3092 5.00391Z" fill="#98CE8B"/>
<path d="M21.9928 5.45703C21.655 6.04792 21.2269 6.58381 20.7234 7.04576C20.5821 6.94239 20.3045 7.09124 20.2637 6.80698C20.5653 6.92792 20.7161 6.70982 20.892 6.5372C21.2345 6.19196 21.4377 5.72888 21.8461 5.43945L21.9928 5.45703Z" fill="#E3EEDD"/>
<path d="M31.2872 14.5333C30.9702 12.7024 30.403 10.9224 29.6011 9.242L29.2178 8.44092C29.8587 8.87609 30.2357 9.4508 30.8065 9.80121C31.2569 10.3522 31.7135 10.899 32.1575 11.4551C32.6812 12.1063 32.8079 12.8092 32.545 13.6206C32.368 14.1664 32.3261 14.7576 32.2235 15.323L32.1827 15.4378C31.7302 15.4243 31.5669 15.0439 31.3176 14.7721L31.2872 14.5333Z" fill="#99CF8B"/>
<path d="M4.64415 17.4604C4.63786 17.3571 4.63367 17.2589 4.75411 17.2124C5.2432 17.1844 5.30604 17.5752 5.44428 17.8935C5.91557 19.5701 6.7377 21.0751 7.76719 22.4768C7.9578 22.7362 8.17773 22.9771 8.29084 23.2872L8.43536 25.524C6.5628 23.3895 5.60033 20.8271 4.86408 18.1561C4.79287 17.9245 4.71327 17.692 4.64415 17.4604Z" fill="#46B093"/>
<path d="M31.3174 14.772C31.7028 14.8753 31.8693 15.2485 32.1824 15.4387C32.0379 15.9648 31.9468 16.5127 31.5541 17.1132C31.5346 16.3281 31.4554 15.5455 31.3174 14.772Z" fill="#3D76A4"/>
<path d="M3.70605 15.7685C4.16371 16.0786 4.16686 16.4217 3.7626 16.7825L3.49763 16.9561C3.49763 16.5261 3.49484 16.0954 3.48926 15.6641L3.70605 15.7685Z" fill="#2E577C"/>
<path d="M3.95218 16.8125C4.17001 16.6255 4.29464 16.7609 4.3512 16.9542C4.42241 17.195 4.44964 17.4482 4.49677 17.6963C4.08414 17.8359 3.82545 17.4637 3.47461 17.3976L3.95218 16.8125Z" fill="#2B577D"/>
<path d="M17.6153 15.8096L21.0714 16.467C21.1614 16.6665 21.3363 16.9042 21.1929 17.0799C21.0494 17.2557 20.8085 17.0903 20.6064 17.0541C19.4543 16.8474 18.3023 16.653 17.1503 16.4546C17.1314 16.1166 17.4205 15.9987 17.6153 15.8096Z" fill="#498C41"/>
<path d="M17.6157 15.8098C17.5895 16.1137 17.2649 16.2098 17.1549 16.4548L17.0565 16.4847C16.7726 16.1385 17.3612 16.063 17.2806 15.7798L17.6157 15.8098Z" fill="#376B34"/>
<path d="M29.7191 17.8213C30.6616 18.6482 31.3811 19.5785 32.1519 20.4582C32.7259 21.1114 33.2411 21.8153 33.7805 22.4976C34.3523 23.2211 34.3471 23.7731 33.7878 24.5287C32.3853 26.4365 30.81 28.2145 29.0813 29.8407C28.8624 30.0474 28.6487 30.035 28.3387 30.0567C27.2778 30.1322 27.0527 29.2887 26.5583 28.7502C25.4335 27.5191 24.3391 26.2611 23.2342 25.0125C23.163 24.9318 23.0457 24.8719 23.0865 24.6672C25.1413 25.1737 26.7929 24.3923 28.1974 22.9844C29.6018 21.5766 30.2752 19.901 29.7191 17.8213Z" fill="#428A41"/>
<path d="M26.8589 16.7877C28.4455 16.6306 29.9516 18.1252 29.319 20.3269C28.6969 22.4893 26.4724 24.4884 24.0825 24.3096C23.5099 24.2702 22.9705 24.0296 22.5622 23.6313C22.1539 23.2331 21.9037 22.7036 21.857 22.1389C21.6559 19.7863 23.7746 17.3934 26.1143 16.8404C26.353 16.7773 26.6107 16.8001 26.8589 16.7877Z" fill="#458F42"/>
<path d="M15.4183 16.238C14.8727 15.8938 14.3009 15.5878 13.8223 15.1475C14.3641 15.1776 14.9002 15.2734 15.4183 15.4328V16.238Z" fill="#152D46"/>
<path d="M12.1938 14.3523C11.8797 14.2645 11.7048 13.8634 11.3047 13.9926C11.334 13.8128 11.5539 13.882 11.6189 13.7549L12.1907 14.0991C12.1949 14.1838 12.1938 14.2676 12.1938 14.3523Z" fill="#BED5E5"/>
<path d="M4.55762 14.9769C4.58205 14.7605 4.60684 14.5448 4.63198 14.3298C4.65711 14.3205 4.68329 14.3133 4.70948 14.306C5.18914 14.1965 5.03937 13.9112 4.90218 13.63C4.98492 12.8352 5.14201 12.063 5.63529 11.4004C5.784 10.8412 6.31079 10.5911 6.65012 10.1869C7.06904 9.9068 7.25755 10.4247 7.59268 10.4443C7.72464 10.436 7.83042 10.4629 7.83566 10.6231C8.49248 11.3575 9.21449 12.0324 9.99309 12.6398C10.1418 12.7587 10.3073 12.8569 10.3806 13.045C10.5722 13.2879 10.59 13.4998 10.2675 13.6486C10.1816 13.8151 10.0172 13.8688 9.85589 13.9267C8.28495 14.488 6.70667 15.0368 5.20066 15.7635C5.10026 15.8195 4.9836 15.8403 4.86971 15.8224C4.49897 15.6353 4.70738 15.2425 4.55762 14.9769Z" fill="#3775A7"/>
<path d="M4.77632 16.7801C4.67159 16.5051 4.61609 16.2333 4.84544 15.9862C5.50524 15.4528 6.31166 15.2151 7.08561 14.9174C8.1769 14.4967 9.25142 14.0192 10.4024 13.7607L10.5794 13.8641C10.6367 13.9269 10.6727 14.0057 10.6825 14.0896C10.6922 14.1736 10.6752 14.2584 10.6339 14.3324C10.1678 15.3826 9.80649 16.471 9.44203 17.5584C9.4279 17.6127 9.4018 17.6633 9.3656 17.7066C9.32939 17.7498 9.28397 17.7846 9.23257 17.8085C8.27429 17.9584 8.07531 17.8706 7.59355 17.085C7.51291 16.9527 7.43122 16.7873 7.27308 16.7842C6.56301 16.7687 5.82257 16.5258 5.17115 17.0219C4.92713 17.1181 4.81298 17.0095 4.77632 16.7801Z" fill="#3775A8"/>
<path d="M10.4041 13.7609C8.96931 14.317 7.53137 14.869 6.09867 15.4334C5.67452 15.6008 5.26083 15.8014 4.84715 15.9864L4.71624 15.883C4.711 15.789 4.75499 15.7425 4.85238 15.7507C6.61316 14.9449 8.42123 14.2439 10.2669 13.6514L10.4041 13.7609Z" fill="#D1E4EF"/>
<path d="M10.823 12.3604C10.8303 12.5216 10.8387 12.6829 10.846 12.8431C10.7664 13.0095 10.6365 12.9868 10.4952 12.9382C9.68455 12.503 8.96401 11.9717 8.51367 11.1489C9.2007 11.304 9.71073 11.7908 10.3224 12.0896C10.4973 12.1722 10.6606 12.2704 10.823 12.3604Z" fill="#3972A4"/>
<path d="M9.25664 17.7345C9.67556 16.6047 10.0882 15.4749 10.5134 14.3472C10.5731 14.186 10.6495 14.0371 10.5825 13.8604L10.8611 14.094C10.3774 15.1989 9.95097 16.3274 9.5834 17.4751C9.53941 17.6105 9.44516 17.7521 9.53732 17.9071C9.55827 18.0766 9.51009 18.1986 9.31529 18.2172C9.285 18.2142 9.25583 18.2043 9.23004 18.1884C9.20424 18.1724 9.18253 18.1508 9.16658 18.1252C9.10583 17.9764 9.09012 17.8348 9.25664 17.7345Z" fill="#D4E4EE"/>
<path d="M8.51883 11.149C9.06552 11.8726 9.82062 12.3615 10.5003 12.9383L10.3799 13.0417C9.43731 12.4866 8.69582 11.6979 7.94491 10.9268C7.90476 10.8863 7.87446 10.8374 7.85632 10.7837C7.83817 10.7299 7.83265 10.6728 7.84018 10.6167L8.02346 10.7201L8.51883 11.149Z" fill="#C9DDEA"/>
<path d="M9.35039 18.1708L9.53472 17.9072C9.70438 18.0757 9.90441 18.2246 10.0374 18.4179C10.4626 19.038 10.9454 19.3905 11.7948 19.3482C12.2943 19.3213 12.5132 19.9508 12.6965 20.4139C12.6818 20.4418 12.6661 20.4686 12.6515 20.4976C11.954 20.8997 11.1413 20.7963 10.3914 20.9803C10.0144 21.0733 9.60907 21.1054 9.22053 21.1953C9.02678 21.2056 8.91471 21.1002 8.84245 20.9369C8.68183 19.9846 8.86137 19.0069 9.35039 18.1708Z" fill="#98CE8B"/>
<path d="M14.8423 20.2161L14.7376 20.4228C14.0558 20.5262 13.3583 20.5437 12.7058 20.8022C12.6901 20.7837 12.6783 20.7622 12.6713 20.7391C12.6507 20.7228 12.6342 20.7022 12.6228 20.6788C12.6114 20.6553 12.6055 20.6297 12.6055 20.6037C12.6055 20.5777 12.6114 20.552 12.6228 20.5286C12.6342 20.5052 12.6507 20.4846 12.6713 20.4683C12.6766 20.4462 12.6858 20.4252 12.6985 20.4063C13.3625 20.49 13.9898 20.2636 14.6349 20.1851L14.8423 20.2161Z" fill="#CCDFE7"/>
<path d="M28.7793 13.509C28.995 13.4202 29.2264 13.3745 29.46 13.3745C29.6937 13.3745 29.9251 13.4202 30.1408 13.509C29.6917 13.6007 29.2284 13.6007 28.7793 13.509Z" fill="#90D0B8"/>
<path d="M28.78 13.5088H30.1415C30.1488 13.545 30.1572 13.5811 30.1656 13.6173H28.7549C28.7643 13.5832 28.7716 13.547 28.78 13.5088Z" fill="#4D8C75"/>
<path d="M7.5904 10.444C7.6103 10.6404 7.55794 10.7158 7.38723 10.5525C7.19767 10.3695 7.01334 10.1814 6.71172 10.2279C6.41638 10.3075 6.20274 10.1762 6.01946 9.96641C6.01108 9.93747 6.00375 9.90853 5.99746 9.87959C5.93358 9.66045 6.11895 9.55812 6.22159 9.41754C6.54834 9.06506 6.70858 9.58086 6.9725 9.55812C7.25527 9.80206 7.36628 10.1587 7.5904 10.444Z" fill="#448242"/>
<path d="M6.22209 9.41764C6.25142 9.62437 6.1027 9.74014 5.99797 9.87968H5.78223C5.89952 9.6347 6.07338 9.40316 5.97388 9.10547C6.16449 9.12511 6.07861 9.35872 6.22209 9.41764Z" fill="#629F8F"/>
<path d="M8.75968 22.0273C9.09933 23.0295 9.50875 24.0072 9.98502 24.9536C9.95905 24.9722 9.92804 24.9826 9.896 24.9836L8.53451 23.7256C8.6141 23.1602 8.33657 22.5483 8.75968 22.0273Z" fill="#9BCF8E"/>
<path d="M8.97228 20.8952C9.01208 21.01 9.06654 21.1082 9.21211 21.102C9.34721 21.0482 9.47079 21.0172 9.46032 21.2332C9.39748 21.3252 9.22677 21.3035 9.22049 21.4544L9.01103 21.7129C9.00789 21.7412 8.99743 21.7682 8.98066 21.7914L8.7712 21.9899C8.74711 21.7976 8.56174 21.7707 8.4413 21.6798C8.25069 21.6477 8.20147 21.5041 8.16691 21.3469C8.14073 21.104 8.14701 20.8663 8.31143 20.6616C8.40458 20.5531 8.52031 20.4657 8.65076 20.4053C8.94505 20.4539 8.72826 20.8187 8.97228 20.8952Z" fill="#F8FAF6"/>
<path d="M9.4611 21.2325C9.40978 21.1291 9.30819 21.1208 9.21289 21.1012C9.87897 20.7911 10.6226 20.8355 11.3242 20.6877C11.7687 20.5924 12.2179 20.5203 12.67 20.4717C12.67 20.5626 12.67 20.6526 12.67 20.7425L9.4611 21.2325Z" fill="#D8E8D1"/>
<path d="M8.30057 21.345L8.44823 21.6789C8.17698 22.1957 8.38854 22.7559 8.28276 23.2872C6.88267 21.7546 5.86928 19.9171 5.3252 17.9246C5.57445 17.7985 5.6729 18.0125 5.78077 18.1448C6.45988 18.9819 7.18905 19.7782 7.96438 20.5294C8.20421 20.7599 8.20421 21.069 8.30057 21.345Z" fill="#98CE8B"/>
<path d="M6.01959 9.96582L6.71185 10.2273C6.43013 10.6863 6.00807 11.0202 5.63628 11.3995C5.4352 10.9974 5.84574 10.7338 5.87506 10.3793C5.90524 10.236 5.9538 10.097 6.01959 9.96582Z" fill="#95CB8B"/>
<path d="M4.90266 13.6299C5.20952 14.0516 5.16449 14.2118 4.70996 14.3059C4.99901 14.1436 4.9079 13.8749 4.90266 13.6299Z" fill="#569580"/>
<path d="M8.30085 21.3452C8.12176 20.8749 7.75206 20.5503 7.41588 20.1947C6.71 19.4474 6.02088 18.6835 5.32129 17.9207C5.17676 17.6457 5.07413 17.3377 4.74527 17.2075C4.72852 17.0617 4.5243 16.9056 4.77251 16.7754L5.05109 17.009C5.21028 17.0576 5.28987 17.193 5.38098 17.3108C6.3035 18.509 7.31894 19.6346 8.41814 20.6775C8.25686 20.8811 8.3197 21.1199 8.30085 21.3452Z" fill="#E2EEDD"/>
<path d="M4.85323 15.7477L4.71708 15.88C4.39347 15.6257 4.50762 15.2949 4.55999 14.9766C4.9056 15.1409 4.60816 15.5471 4.85323 15.7477Z" fill="#376183"/>
<path d="M23.7598 25.1429C27.9835 24.5723 29.9577 22.5887 30.1849 18.6309C30.584 19.0557 30.9589 19.4133 31.2846 19.8123C32.0983 20.8088 32.8891 21.8249 33.6934 22.8316C33.8489 23.0187 33.9372 23.2512 33.9446 23.493C33.952 23.7348 33.878 23.9723 33.7342 24.1682C32.3047 26.1293 30.6974 27.9582 28.9324 29.6321C28.7229 29.8244 27.7416 29.8109 27.5709 29.5918C26.3665 28.0661 25.0417 26.6396 23.7598 25.1429Z" fill="#68B953"/>
<path d="M22.0969 21.655C22.0414 20.795 22.3807 20.028 22.8918 19.3613C23.8857 18.0641 25.0586 17.0583 26.86 17.0077C28.6132 16.9581 29.5128 18.2987 29.185 19.9164C28.7326 22.147 26.8014 23.9291 24.5235 24.1306C23.2981 24.2392 21.9367 23.4587 22.0969 21.655Z" fill="#67B953"/>
<path d="M8.42377 20.6821C8.33161 20.6625 8.20593 20.6749 8.15252 20.6201C7.05286 19.4748 5.90712 18.3678 5.05566 17.0137C5.0583 16.9277 5.08912 16.8448 5.1435 16.7775C5.19788 16.7102 5.27289 16.6622 5.35729 16.6405C6.05164 16.5372 6.75438 16.5651 7.45188 16.5878C7.66134 16.594 7.64039 16.8142 7.67391 16.9351C7.84985 17.5791 8.29077 17.7755 8.91286 17.7176C9.02657 17.7149 9.14034 17.7204 9.25323 17.7341C9.23438 17.8747 9.21448 18.0163 9.19458 18.1569C9.02178 18.9197 8.94532 19.7074 8.65313 20.4403C8.6469 20.4998 8.62111 20.5556 8.5797 20.5993C8.53828 20.643 8.48352 20.6721 8.42377 20.6821Z" fill="#99CF8B"/>
<path d="M8.65625 20.4406C8.74632 19.6591 8.83953 18.8777 9.1977 18.1572L9.35061 18.1707C9.19666 18.8942 9.0448 19.625 8.88561 20.3517C8.84267 20.5481 8.91074 20.7197 8.97253 20.8954C8.67405 20.8747 8.82696 20.5481 8.65625 20.4406Z" fill="#DEEBD6"/>
<path d="M28.1929 18.6658C27.7384 19.0338 27.8117 19.3894 28.1856 19.6685C28.4191 19.8442 28.3458 19.9641 28.2097 20.1181C28.0233 20.3248 27.8306 20.5316 27.5708 20.821C27.4085 20.3042 27.7698 19.9114 27.5604 19.4907C27.1928 19.6695 26.9623 20.0189 26.6743 20.3C26.5131 20.4582 26.6743 20.6236 26.7194 20.7734C26.9068 21.3936 26.8807 21.9456 26.3643 22.4356C25.848 22.9255 25.272 23.2046 24.5567 22.9183C24.3085 22.8149 24.121 22.8645 23.9629 23.0403C23.721 22.8439 24.1242 22.7188 23.9461 22.5234C23.7367 22.2909 23.611 22.5937 23.39 22.54C23.7042 22.0355 23.4193 21.713 23.0172 21.4753C22.8255 21.3637 22.7868 21.3089 22.9355 21.16C23.2382 20.8551 23.5429 20.5522 23.9692 20.1264C23.8277 20.6904 23.7817 21.2737 23.833 21.8526C24.2855 21.6024 24.5557 21.219 24.8803 20.8985C25.0385 20.7414 24.8803 20.5719 24.8332 20.4241C24.6133 19.7594 24.7609 19.192 25.2783 18.7268C25.7517 18.303 26.3141 18.1138 26.911 18.4033C27.2682 18.5769 27.375 18.2513 27.6441 18.1655C27.6724 18.4136 27.1917 18.5852 27.5478 18.8353C27.8253 19.0235 27.8662 18.6069 28.1929 18.6658Z" fill="#41863F"/>
<path d="M25.2834 21.3008C25.2834 21.4445 24.323 22.4502 24.2361 22.4223C24.0172 22.3541 23.9051 22.2021 24.0769 22.0026C24.3366 21.7039 24.6225 21.4279 24.899 21.1447C24.9681 21.0744 25.0509 21.0165 25.1409 21.1106C25.1932 21.1703 25.2408 21.2339 25.2834 21.3008Z" fill="#68B554"/>
<path d="M26.5949 20.1077C26.3079 20.0239 26.1886 19.9154 26.3121 19.7531C26.5319 19.4738 26.7669 19.2063 27.0159 18.952C27.1322 18.829 27.2788 18.7991 27.4118 18.9417C27.5448 19.0843 27.4411 19.1784 27.35 19.2787C27.0861 19.5671 26.8232 19.8575 26.5949 20.1077Z" fill="#67B556"/>
<path d="M24.415 22.6699C24.6915 22.3598 24.9104 22.1055 25.1408 21.8626C25.2131 21.7861 25.3094 21.6858 25.4341 21.7706C25.5388 21.8419 25.544 21.9628 25.5388 22.0807C25.5 22.5314 25.1576 22.7319 24.415 22.6699Z" fill="#67B654"/>
<path d="M26.002 19.134C26.0596 18.7144 26.3444 18.5469 26.7351 18.5138C26.8398 18.5056 27.021 18.5769 26.9529 18.6875C26.7591 19.0038 26.5057 19.3139 26.1643 19.4555C25.9559 19.5485 26.0533 19.2612 26.002 19.134Z" fill="#67B354"/>
</g>
<path d="M44.2821 10.0317V22.4813H42.1318V10.0317H44.2821ZM49.3708 15.4784V17.18H43.7338V15.4784H49.3708ZM50.0818 10.0317V11.7418H43.7338V10.0317H50.0818Z" fill="#1D2939"/>
<path d="M53.7998 13.2296V22.4813H51.7267V13.2296H53.7998ZM51.5896 10.8012C51.5896 10.4877 51.6924 10.2284 51.898 10.0231C52.1093 9.81224 52.4006 9.70678 52.7718 9.70678C53.1373 9.70678 53.4258 9.81224 53.6371 10.0231C53.8484 10.2284 53.954 10.4877 53.954 10.8012C53.954 11.1091 53.8484 11.3656 53.6371 11.5708C53.4258 11.776 53.1373 11.8786 52.7718 11.8786C52.4006 11.8786 52.1093 11.776 51.898 11.5708C51.6924 11.3656 51.5896 11.1091 51.5896 10.8012Z" fill="#1D2939"/>
<path d="M56.0701 9.34766H58.1347V20.5061L57.9376 22.4813H56.0701V9.34766ZM64.1828 17.7699V17.9495C64.1828 18.6335 64.1057 19.2634 63.9515 19.8392C63.803 20.4092 63.5746 20.9051 63.2662 21.327C62.9635 21.7488 62.5865 22.0766 62.1354 22.3103C61.6899 22.5383 61.173 22.6523 60.5848 22.6523C60.0079 22.6523 59.5053 22.544 59.077 22.3274C58.6487 22.1108 58.2889 21.8029 57.9976 21.4039C57.712 21.0049 57.4807 20.5289 57.3037 19.976C57.1266 19.423 57.001 18.8131 56.9267 18.1462V17.5733C57.001 16.9006 57.1266 16.2907 57.3037 15.7435C57.4807 15.1905 57.712 14.7145 57.9976 14.3155C58.2889 13.9108 58.6458 13.6001 59.0684 13.3835C59.4968 13.1669 59.9965 13.0586 60.5676 13.0586C61.1616 13.0586 61.6842 13.1726 62.1354 13.4006C62.5923 13.6286 62.9721 13.9535 63.2747 14.3754C63.5774 14.7915 63.803 15.2874 63.9515 15.8632C64.1057 16.4389 64.1828 17.0745 64.1828 17.7699ZM62.1182 17.9495V17.7699C62.1182 17.3538 62.084 16.9633 62.0154 16.5985C61.9469 16.228 61.8327 15.9031 61.6728 15.6238C61.5186 15.3444 61.3072 15.125 61.0388 14.9654C60.7761 14.8001 60.4477 14.7174 60.0536 14.7174C59.6881 14.7174 59.374 14.7801 59.1113 14.9055C58.8486 15.0309 58.6287 15.2019 58.4516 15.4185C58.2746 15.6352 58.1347 15.886 58.0319 16.171C57.9348 16.456 57.8691 16.7638 57.8348 17.0944V18.6421C57.8862 19.0696 57.9947 19.463 58.1604 19.8221C58.3317 20.1755 58.5716 20.4605 58.88 20.6771C59.1884 20.888 59.5853 20.9935 60.0708 20.9935C60.4534 20.9935 60.7761 20.9165 61.0388 20.7626C61.3015 20.6087 61.51 20.395 61.6642 20.1213C61.8241 19.842 61.9383 19.5171 62.0069 19.1466C62.0811 18.7761 62.1182 18.377 62.1182 17.9495Z" fill="#1D2939"/>
<path d="M66.1361 10.0317H70.548C71.496 10.0317 72.3042 10.1742 72.9724 10.4592C73.6406 10.7442 74.1518 11.1661 74.5058 11.7247C74.8657 12.2776 75.0456 12.9617 75.0456 13.7768C75.0456 14.3982 74.9313 14.9454 74.7029 15.4185C74.4744 15.8917 74.1518 16.2907 73.7348 16.6156C73.3179 16.9348 72.821 17.1828 72.2442 17.3595L71.5931 17.6759H67.6267L67.6096 15.9743H70.5822C71.0963 15.9743 71.5246 15.8831 71.8673 15.7007C72.2099 15.5183 72.4669 15.2703 72.6383 14.9568C72.8153 14.6376 72.9039 14.2785 72.9039 13.8794C72.9039 13.4462 72.8182 13.07 72.6468 12.7508C72.4812 12.4259 72.2242 12.1779 71.8758 12.0069C71.5275 11.8302 71.0848 11.7418 70.548 11.7418H68.2863V22.4813H66.1361V10.0317ZM73.2551 22.4813L70.3252 16.8892L72.5783 16.8807L75.551 22.3701V22.4813H73.2551Z" fill="#1D2939"/>
<path d="M81.068 22.6523C80.3827 22.6523 79.763 22.5411 79.209 22.3188C78.6608 22.0908 78.1924 21.7744 77.8041 21.3697C77.4214 20.965 77.1273 20.489 76.9217 19.9418C76.7161 19.3945 76.6133 18.8046 76.6133 18.1718V17.8298C76.6133 17.1059 76.7189 16.4503 76.9303 15.8632C77.1416 15.276 77.4357 14.7744 77.8126 14.3583C78.1896 13.9364 78.6351 13.6144 79.1491 13.3921C79.6631 13.1697 80.2199 13.0586 80.8196 13.0586C81.4821 13.0586 82.0618 13.1697 82.5587 13.3921C83.0555 13.6144 83.4667 13.9279 83.7923 14.3326C84.1235 14.7316 84.3691 15.2076 84.529 15.7606C84.6947 16.3135 84.7775 16.9234 84.7775 17.5904V18.4711H77.6156V16.9918H82.7386V16.8294C82.7271 16.4589 82.6529 16.1111 82.5158 15.7862C82.3845 15.4613 82.1817 15.1991 81.9076 14.9996C81.6334 14.8001 81.2679 14.7003 80.811 14.7003C80.4684 14.7003 80.1628 14.7744 79.8944 14.9226C79.6317 15.0651 79.4118 15.2732 79.2347 15.5468C79.0577 15.8204 78.9206 16.151 78.8235 16.5387C78.7321 16.9206 78.6865 17.351 78.6865 17.8298V18.1718C78.6865 18.5765 78.7407 18.9528 78.8492 19.3005C78.9635 19.6425 79.1291 19.9418 79.3461 20.1983C79.5631 20.4548 79.8258 20.6572 80.1343 20.8054C80.4427 20.9479 80.7939 21.0191 81.188 21.0191C81.6848 21.0191 82.1275 20.9194 82.5158 20.7199C82.9042 20.5204 83.2411 20.2382 83.5267 19.8734L84.6147 20.9251C84.4148 21.2158 84.1549 21.4951 83.8351 21.763C83.5153 22.0253 83.1241 22.239 82.6615 22.4043C82.2046 22.5696 81.6734 22.6523 81.068 22.6523Z" fill="#1D2939"/>
<path d="M88.4526 15.1107V22.4813H86.388V13.2296H88.3327L88.4526 15.1107ZM88.1185 17.5134L87.416 17.5049C87.416 16.8664 87.496 16.2764 87.6559 15.7349C87.8158 15.1934 88.05 14.7231 88.3584 14.3241C88.6668 13.9193 89.0495 13.6087 89.5064 13.3921C89.969 13.1697 90.503 13.0586 91.1083 13.0586C91.531 13.0586 91.9165 13.1213 92.2649 13.2467C92.619 13.3664 92.9245 13.5574 93.1815 13.8196C93.4442 14.0818 93.6441 14.4181 93.7812 14.8286C93.924 15.239 93.9954 15.7349 93.9954 16.3163V22.4813H91.9308V16.4959C91.9308 16.0456 91.8622 15.6922 91.7252 15.4356C91.5938 15.1791 91.4025 14.9967 91.1512 14.8884C90.9056 14.7744 90.6115 14.7174 90.2688 14.7174C89.8804 14.7174 89.5492 14.7915 89.275 14.9397C89.0066 15.0879 88.7867 15.2903 88.6154 15.5468C88.4441 15.8033 88.3184 16.0997 88.2385 16.4361C88.1585 16.7724 88.1185 17.1315 88.1185 17.5134ZM93.8669 16.9662L92.8988 17.18C92.8988 16.6213 92.9759 16.094 93.1301 15.5981C93.29 15.0965 93.5213 14.6575 93.824 14.2813C94.1324 13.8994 94.5122 13.6001 94.9634 13.3835C95.4146 13.1669 95.9315 13.0586 96.514 13.0586C96.988 13.0586 97.4107 13.1241 97.7819 13.2553C98.1588 13.3807 98.4787 13.5802 98.7414 13.8538C99.0041 14.1274 99.204 14.4837 99.3411 14.9226C99.4781 15.3558 99.5467 15.8803 99.5467 16.4959V22.4813H97.4735V16.4874C97.4735 16.0199 97.405 15.658 97.2679 15.4014C97.1365 15.1449 96.9481 14.9682 96.7025 14.8713C96.4569 14.7687 96.1628 14.7174 95.8201 14.7174C95.5003 14.7174 95.2176 14.7773 94.972 14.897C94.7321 15.011 94.5294 15.1734 94.3637 15.3843C94.1981 15.5896 94.0725 15.8261 93.9868 16.094C93.9068 16.362 93.8669 16.6527 93.8669 16.9662Z" fill="#1D2939"/>
<path d="M103.881 13.2296V22.4813H101.808V13.2296H103.881ZM101.671 10.8012C101.671 10.4877 101.774 10.2284 101.98 10.0231C102.191 9.81224 102.482 9.70678 102.853 9.70678C103.219 9.70678 103.507 9.81224 103.719 10.0231C103.93 10.2284 104.036 10.4877 104.036 10.8012C104.036 11.1091 103.93 11.3656 103.719 11.5708C103.507 11.776 103.219 11.8786 102.853 11.8786C102.482 11.8786 102.191 11.776 101.98 11.5708C101.774 11.3656 101.671 11.1091 101.671 10.8012Z" fill="#1D2939"/>
<path d="M110.392 13.2296V14.7345H105.166V13.2296H110.392ZM106.674 10.9637H108.739V19.9247C108.739 20.2097 108.779 20.4292 108.859 20.5831C108.944 20.7313 109.062 20.831 109.21 20.8823C109.359 20.9336 109.533 20.9593 109.733 20.9593C109.875 20.9593 110.012 20.9507 110.144 20.9336C110.275 20.9165 110.381 20.8994 110.461 20.8823L110.469 22.4556C110.298 22.5069 110.098 22.5525 109.87 22.5925C109.647 22.6324 109.39 22.6523 109.099 22.6523C108.625 22.6523 108.205 22.5696 107.839 22.4043C107.474 22.2333 107.188 21.9569 106.983 21.5749C106.777 21.193 106.674 20.6857 106.674 20.0529V10.9637Z" fill="#1D2939"/>
<defs>
<clipPath id="clip0_5369_20875">
<rect width="35.6364" height="32" fill="white"/>
</clipPath>
</defs>
</svg>
