<svg width="24" height="24" viewBox="0 0 24 24" fill="none" xmlns="http://www.w3.org/2000/svg">
<path d="M20.5002 19.0001H3.50022C2.95022 19.0001 2.50022 19.4501 2.50022 20.0001C2.50022 20.5501 2.95022 21.0001 3.50022 21.0001H20.5002C21.0502 21.0001 21.5002 20.5501 21.5002 20.0001C21.5002 19.4501 21.0502 19.0001 20.5002 19.0001ZM22.0702 9.64012C21.8502 8.84012 21.0302 8.37012 20.2302 8.58012L14.9202 10.0001L8.46022 3.98012C8.32657 3.85344 8.16222 3.76376 7.98336 3.71993C7.8045 3.67609 7.61731 3.6796 7.44022 3.73012C6.76022 3.92012 6.44022 4.70012 6.79022 5.31012L10.2302 11.2701L5.26022 12.6001L3.69022 11.3601C3.44022 11.1701 3.12022 11.1001 2.81022 11.1801L2.48022 11.2701C2.16022 11.3501 2.01022 11.7201 2.18022 12.0001L4.06022 15.2501C4.29022 15.6401 4.75022 15.8301 5.18022 15.7201L21.0002 11.4801C21.8002 11.2601 22.2802 10.4401 22.0702 9.64012Z" fill="#D0D5DD"/>
</svg>
