<svg width="16" height="16" viewBox="0 0 16 16" fill="none" xmlns="http://www.w3.org/2000/svg">
<path d="M7.99848 0.5C5.74248 0.5 4.27998 2.01425 2.55048 2.56625C1.84698 2.79125 1.49523 2.903 1.35273 3.06125C1.21023 3.21875 1.16898 3.4505 1.08573 3.9125C0.193228 8.8595 2.14323 13.433 6.79323 15.2135C7.29198 15.4047 7.54173 15.5 8.00073 15.5C8.45973 15.5 8.71023 15.404 9.20973 15.2128C13.859 13.433 15.8067 8.8595 14.9142 3.9125C14.831 3.4505 14.789 3.21875 14.6465 3.0605C14.504 2.90225 14.153 2.7905 13.4495 2.56625C11.7192 2.01425 10.2545 0.5 7.99848 0.5Z" fill="#1D2939" stroke="#FCFCFD" stroke-width="0.6" stroke-linecap="round" stroke-linejoin="round"/>
<path d="M5.75 8.75C5.75 8.75 6.5 8.75 7.25 10.25C7.25 10.25 9.63275 6.5 11.75 5.75" stroke="#FCFCFD" stroke-width="0.6" stroke-linecap="round" stroke-linejoin="round"/>
</svg>
